<?xml version="1.0" encoding="UTF-8" ?>
<svg xmlns="http://www.w3.org/2000/svg" xmlns:xlink="http://www.w3.org/1999/xlink" width="713pt" height="1816pt" viewBox="0.00 0.00 712.85 1816.00">
<g id="graph0" class="graph" transform="scale(1 1) rotate(0) translate(4 1812)">
<title>graphname</title>
<polygon fill="#000000" stroke="transparent" points="-4,4 -4,-1812 708.8484,-1812 708.8484,4 -4,4"/>
<!-- United Newsserver  -->
<g id="node1" class="node">
<title>United Newsserver </title>
<polygon fill="#91c49b" stroke="#91c49b" points="138.1725,-61 -.0575,-61 -.0575,-34 138.1725,-34 138.1725,-61"/>
<text text-anchor="middle" x="69.0575" y="-43.3" font-family="Helvetica,sans-Serif" font-size="14.00" fill="#ffffff">United Newsserver </text>
</g>
<!-- Elbracht -->
<g id="node2" class="node">
<title>Elbracht</title>
<polygon fill="#91c49b" stroke="#91c49b" points="291.4188,-61 223.7326,-61 223.7326,-34 291.4188,-34 291.4188,-61"/>
<text text-anchor="middle" x="257.5757" y="-43.3" font-family="Helvetica,sans-Serif" font-size="14.00" fill="#ffffff">Elbracht</text>
</g>
<!-- United Newsserver &#45;&#45;Elbracht -->
<g id="edge1" class="edge">
<title>United Newsserver --Elbracht</title>
<path fill="none" stroke="#ffffff" d="M138.1843,-47.5C167.3976,-47.5 200.0855,-47.5 223.8622,-47.5"/>
</g>
<!-- United Newsserver -->
<g id="node3" class="node">
<title>United Newsserver</title>
<polygon fill="#91c49b" stroke="#91c49b" points="511.3732,-72 376.924,-72 376.924,-45 511.3732,-45 511.3732,-72"/>
<text text-anchor="middle" x="444.1486" y="-54.3" font-family="Helvetica,sans-Serif" font-size="14.00" fill="#ffffff">United Newsserver</text>
</g>
<!-- Elbracht&#45;&#45;United Newsserver -->
<g id="edge2" class="edge">
<title>Elbracht--United Newsserver</title>
<path fill="none" stroke="#ffffff" d="M291.3626,-49.492C315.1999,-50.8974 347.933,-52.8273 376.9882,-54.5403"/>
</g>
<!-- Premium News  -->
<g id="node4" class="node">
<title>Premium News </title>
<polygon fill="#91c49b" stroke="#91c49b" points="501.416,-27 386.8812,-27 386.8812,0 501.416,0 501.416,-27"/>
<text text-anchor="middle" x="444.1486" y="-9.3" font-family="Helvetica,sans-Serif" font-size="14.00" fill="#ffffff">Premium News </text>
</g>
<!-- Elbracht&#45;&#45;Premium News  -->
<g id="edge3" class="edge">
<title>Elbracht--Premium News </title>
<path fill="none" stroke="#ffffff" d="M291.3626,-41.3429C317.9302,-36.5013 355.548,-29.6461 386.8083,-23.9494"/>
</g>
<!-- Altopia -->
<g id="node5" class="node">
<title>Altopia</title>
<polygon fill="#f6b72d" stroke="#f6b72d" points="98.3461,-128 39.7689,-128 39.7689,-101 98.3461,-101 98.3461,-128"/>
<text text-anchor="middle" x="69.0575" y="-110.3" font-family="Helvetica,sans-Serif" font-size="14.00" fill="#ffffff">Altopia</text>
</g>
<!-- Altopia  -->
<g id="node6" class="node">
<title>Altopia </title>
<polygon fill="#f6b72d" stroke="#f6b72d" points="288.7553,-128 226.3961,-128 226.3961,-101 288.7553,-101 288.7553,-128"/>
<text text-anchor="middle" x="257.5757" y="-110.3" font-family="Helvetica,sans-Serif" font-size="14.00" fill="#ffffff">Altopia </text>
</g>
<!-- Altopia&#45;&#45;Altopia  -->
<g id="edge4" class="edge">
<title>Altopia--Altopia </title>
<path fill="none" stroke="#ffffff" d="M98.5135,-114.5C133.2048,-114.5 190.5945,-114.5 226.1281,-114.5"/>
</g>
<!-- Altopia &#160; -->
<g id="node7" class="node">
<title>Altopia  </title>
<polygon fill="#f6b72d" stroke="#f6b72d" points="477.2194,-128 411.0778,-128 411.0778,-101 477.2194,-101 477.2194,-128"/>
<text text-anchor="middle" x="444.1486" y="-110.3" font-family="Helvetica,sans-Serif" font-size="14.00" fill="#ffffff">Altopia  </text>
</g>
<!-- Altopia &#45;&#45;Altopia &#160; -->
<g id="edge5" class="edge">
<title>Altopia --Altopia  </title>
<path fill="none" stroke="#ffffff" d="M288.8038,-114.5C322.6217,-114.5 376.3531,-114.5 410.9292,-114.5"/>
</g>
<!-- NewsGuy  -->
<g id="node8" class="node">
<title>NewsGuy </title>
<polygon fill="#444139" stroke="#444139" points="109.1183,-195 28.9967,-195 28.9967,-168 109.1183,-168 109.1183,-195"/>
<text text-anchor="middle" x="69.0575" y="-177.3" font-family="Helvetica,sans-Serif" font-size="14.00" fill="#ffffff">NewsGuy </text>
</g>
<!-- NewsGuy / HW Media -->
<g id="node9" class="node">
<title>NewsGuy / HW Media</title>
<polygon fill="#444139" stroke="#444139" points="334.2437,-195 180.9077,-195 180.9077,-168 334.2437,-168 334.2437,-195"/>
<text text-anchor="middle" x="257.5757" y="-177.3" font-family="Helvetica,sans-Serif" font-size="14.00" fill="#ffffff">NewsGuy / HW Media</text>
</g>
<!-- NewsGuy &#45;&#45;NewsGuy / HW Media -->
<g id="edge6" class="edge">
<title>NewsGuy --NewsGuy / HW Media</title>
<path fill="none" stroke="#ffffff" d="M109.4994,-181.5C130.2717,-181.5 156.288,-181.5 180.6942,-181.5"/>
</g>
<!-- NewsGuy -->
<g id="node10" class="node">
<title>NewsGuy</title>
<polygon fill="#444139" stroke="#444139" points="482.3183,-218 405.9789,-218 405.9789,-191 482.3183,-191 482.3183,-218"/>
<text text-anchor="middle" x="444.1486" y="-200.3" font-family="Helvetica,sans-Serif" font-size="14.00" fill="#ffffff">NewsGuy</text>
</g>
<!-- NewsGuy / HW Media&#45;&#45;NewsGuy -->
<g id="edge7" class="edge">
<title>NewsGuy / HW Media--NewsGuy</title>
<path fill="none" stroke="#ffffff" d="M334.2697,-190.9545C358.8938,-193.9901 385.1117,-197.2221 405.7596,-199.7676"/>
</g>
<!-- nntpjunkie.com -->
<g id="node11" class="node">
<title>nntpjunkie.com</title>
<polygon fill="#444139" stroke="#444139" points="499.2819,-173 389.0153,-173 389.0153,-146 499.2819,-146 499.2819,-173"/>
<text text-anchor="middle" x="444.1486" y="-155.3" font-family="Helvetica,sans-Serif" font-size="14.00" fill="#ffffff">nntpjunkie.com</text>
</g>
<!-- NewsGuy / HW Media&#45;&#45;nntpjunkie.com -->
<g id="edge8" class="edge">
<title>NewsGuy / HW Media--nntpjunkie.com</title>
<path fill="none" stroke="#ffffff" d="M334.2697,-172.4565C352.5619,-170.2996 371.7336,-168.0389 388.8481,-166.0208"/>
</g>
<!-- Newscene  -->
<g id="node12" class="node">
<title>Newscene </title>
<polygon fill="#ec2efa" stroke="#ec2efa" points="111.792,-263 26.323,-263 26.323,-236 111.792,-236 111.792,-263"/>
<text text-anchor="middle" x="69.0575" y="-245.3" font-family="Helvetica,sans-Serif" font-size="14.00" fill="#ffffff">Newscene </text>
</g>
<!-- Novia / HW Media -->
<g id="node13" class="node">
<title>Novia / HW Media</title>
<polygon fill="#ec2efa" stroke="#ec2efa" points="321.8529,-263 193.2985,-263 193.2985,-236 321.8529,-236 321.8529,-263"/>
<text text-anchor="middle" x="257.5757" y="-245.3" font-family="Helvetica,sans-Serif" font-size="14.00" fill="#ffffff">Novia / HW Media</text>
</g>
<!-- Newscene &#45;&#45;Novia / HW Media -->
<g id="edge9" class="edge">
<title>Newscene --Novia / HW Media</title>
<path fill="none" stroke="#ffffff" d="M111.8352,-249.5C135.8434,-249.5 166.2792,-249.5 193.1207,-249.5"/>
</g>
<!-- Newscene -->
<g id="node14" class="node">
<title>Newscene</title>
<polygon fill="#ec2efa" stroke="#ec2efa" points="484.9929,-263 403.3043,-263 403.3043,-236 484.9929,-236 484.9929,-263"/>
<text text-anchor="middle" x="444.1486" y="-245.3" font-family="Helvetica,sans-Serif" font-size="14.00" fill="#ffffff">Newscene</text>
</g>
<!-- Novia / HW Media&#45;&#45;Newscene -->
<g id="edge10" class="edge">
<title>Novia / HW Media--Newscene</title>
<path fill="none" stroke="#ffffff" d="M322.0448,-249.5C349.0088,-249.5 379.5348,-249.5 403.3197,-249.5"/>
</g>
<!-- Premium News -->
<g id="node15" class="node">
<title>Premium News</title>
<polygon fill="#ec2efa" stroke="#ec2efa" points="681.4313,-263 570.6779,-263 570.6779,-236 681.4313,-236 681.4313,-263"/>
<text text-anchor="middle" x="626.0546" y="-245.3" font-family="Helvetica,sans-Serif" font-size="14.00" fill="#ffffff">Premium News</text>
</g>
<!-- Newscene&#45;&#45;Premium News -->
<g id="edge11" class="edge">
<title>Newscene--Premium News</title>
<path fill="none" stroke="#ffffff" d="M484.9719,-249.5C510.2166,-249.5 542.9543,-249.5 570.5377,-249.5"/>
</g>
<!-- Giganews -->
<g id="node16" class="node">
<title>Giganews</title>
<polygon fill="#3f022e" stroke="#3f022e" points="108.2921,-330 29.8229,-330 29.8229,-303 108.2921,-303 108.2921,-330"/>
<text text-anchor="middle" x="69.0575" y="-312.3" font-family="Helvetica,sans-Serif" font-size="14.00" fill="#ffffff">Giganews</text>
</g>
<!-- Giganews  -->
<g id="node17" class="node">
<title>Giganews </title>
<polygon fill="#3f022e" stroke="#3f022e" points="298.7006,-330 216.4508,-330 216.4508,-303 298.7006,-303 298.7006,-330"/>
<text text-anchor="middle" x="257.5757" y="-312.3" font-family="Helvetica,sans-Serif" font-size="14.00" fill="#ffffff">Giganews </text>
</g>
<!-- Giganews&#45;&#45;Giganews  -->
<g id="edge12" class="edge">
<title>Giganews--Giganews </title>
<path fill="none" stroke="#ffffff" d="M108.5771,-316.5C140.2117,-316.5 184.4348,-316.5 216.4784,-316.5"/>
</g>
<!-- Giganews &#160; -->
<g id="node18" class="node">
<title>Giganews  </title>
<polygon fill="#3f022e" stroke="#3f022e" points="487.164,-353 401.1332,-353 401.1332,-326 487.164,-326 487.164,-353"/>
<text text-anchor="middle" x="444.1486" y="-335.3" font-family="Helvetica,sans-Serif" font-size="14.00" fill="#ffffff">Giganews  </text>
</g>
<!-- Giganews &#45;&#45;Giganews &#160; -->
<g id="edge13" class="edge">
<title>Giganews --Giganews  </title>
<path fill="none" stroke="#ffffff" d="M298.9823,-321.6044C329.2565,-325.3365 370.2194,-330.3863 400.9128,-334.1701"/>
</g>
<!-- Supernews -->
<g id="node19" class="node">
<title>Supernews</title>
<polygon fill="#3f022e" stroke="#3f022e" points="487.1654,-308 401.1318,-308 401.1318,-281 487.1654,-281 487.1654,-308"/>
<text text-anchor="middle" x="444.1486" y="-290.3" font-family="Helvetica,sans-Serif" font-size="14.00" fill="#ffffff">Supernews</text>
</g>
<!-- Giganews &#45;&#45;Supernews -->
<g id="edge14" class="edge">
<title>Giganews --Supernews</title>
<path fill="none" stroke="#ffffff" d="M298.9823,-311.6175C329.2565,-308.0477 370.2194,-303.2175 400.9128,-299.5982"/>
</g>
<!-- PowerUsenet\nRhinoNewsgroups\nUsenet.net -->
<g id="node20" class="node">
<title>PowerUsenet\nRhinoNewsgroups\nUsenet.net</title>
<polygon fill="#3f022e" stroke="#3f022e" points="691.4029,-368.9014 560.7063,-368.9014 560.7063,-310.0986 691.4029,-310.0986 691.4029,-368.9014"/>
<text text-anchor="middle" x="626.0546" y="-352.1" font-family="Helvetica,sans-Serif" font-size="14.00" fill="#ffffff">PowerUsenet</text>
<text text-anchor="middle" x="626.0546" y="-335.3" font-family="Helvetica,sans-Serif" font-size="14.00" fill="#ffffff">RhinoNewsgroups</text>
<text text-anchor="middle" x="626.0546" y="-318.5" font-family="Helvetica,sans-Serif" font-size="14.00" fill="#ffffff">Usenet.net</text>
</g>
<!-- Giganews &#160;&#45;&#45;PowerUsenet\nRhinoNewsgroups\nUsenet.net -->
<g id="edge15" class="edge">
<title>Giganews  --PowerUsenet\nRhinoNewsgroups\nUsenet.net</title>
<path fill="none" stroke="#ffffff" d="M487.2578,-339.5C509.2159,-339.5 536.3749,-339.5 560.83,-339.5"/>
</g>
<!-- Usenet.Farm  -->
<g id="node21" class="node">
<title>Usenet.Farm </title>
<polygon fill="#368a8b" stroke="#368a8b" points="119.3403,-421 18.7747,-421 18.7747,-394 119.3403,-394 119.3403,-421"/>
<text text-anchor="middle" x="69.0575" y="-403.3" font-family="Helvetica,sans-Serif" font-size="14.00" fill="#ffffff">Usenet.Farm </text>
</g>
<!-- Its Hosted -->
<g id="node22" class="node">
<title>Its Hosted</title>
<polygon fill="#368a8b" stroke="#368a8b" points="297.0925,-421 294.8425,-424 279.0925,-424 276.8425,-421 218.0589,-421 218.0589,-394 297.0925,-394 297.0925,-421"/>
<text text-anchor="middle" x="257.5757" y="-403.3" font-family="Helvetica,sans-Serif" font-size="14.00" fill="#ffa500">Its Hosted</text>
</g>
<!-- Usenet.Farm &#45;&#45;Its Hosted -->
<g id="edge16" class="edge">
<title>Usenet.Farm --Its Hosted</title>
<path fill="none" stroke="#ffffff" d="M119.5769,-407.5C150.4424,-407.5 189.3478,-407.5 217.9753,-407.5"/>
</g>
<!-- Usenet.Farm -->
<g id="node23" class="node">
<title>Usenet.Farm</title>
<polygon fill="#368a8b" stroke="#368a8b" points="492.5407,-421 490.2907,-424 474.5407,-424 472.2907,-421 395.7565,-421 395.7565,-394 492.5407,-394 492.5407,-421"/>
<text text-anchor="middle" x="444.1486" y="-403.3" font-family="Helvetica,sans-Serif" font-size="14.00" fill="#ffa500">Usenet.Farm</text>
</g>
<!-- Its Hosted&#45;&#45;Usenet.Farm -->
<g id="edge17" class="edge">
<title>Its Hosted--Usenet.Farm</title>
<path fill="none" stroke="#ffffff" d="M297.143,-407.5C325.917,-407.5 365.0345,-407.5 395.6842,-407.5"/>
</g>
<!-- UsenetNews\nFrugalUsenet -->
<g id="node24" class="node">
<title>UsenetNews\nFrugalUsenet</title>
<polygon fill="#368a8b" stroke="#368a8b" points="676.0672,-428.1019 576.042,-428.1019 576.042,-386.8981 676.0672,-386.8981 676.0672,-428.1019"/>
<text text-anchor="middle" x="626.0546" y="-411.7" font-family="Helvetica,sans-Serif" font-size="14.00" fill="#ffffff">UsenetNews</text>
<text text-anchor="middle" x="626.0546" y="-394.9" font-family="Helvetica,sans-Serif" font-size="14.00" fill="#ffffff">FrugalUsenet</text>
</g>
<!-- Usenet.Farm&#45;&#45;UsenetNews\nFrugalUsenet -->
<g id="edge18" class="edge">
<title>Usenet.Farm--UsenetNews\nFrugalUsenet</title>
<path fill="none" stroke="#ffffff" d="M492.8961,-407.5C518.5746,-407.5 550.0201,-407.5 575.9041,-407.5"/>
</g>
<!-- Uzo Reto -->
<g id="node25" class="node">
<title>Uzo Reto</title>
<polygon fill="#c16ffa" stroke="#c16ffa" points="106.4005,-481 31.7145,-481 31.7145,-454 106.4005,-454 106.4005,-481"/>
<text text-anchor="middle" x="69.0575" y="-463.3" font-family="Helvetica,sans-Serif" font-size="14.00" fill="#ffffff">Uzo Reto</text>
</g>
<!-- ViperNews -->
<g id="node26" class="node">
<title>ViperNews</title>
<polygon fill="#c16ffa" stroke="#c16ffa" points="299.2412,-481 296.9912,-484 281.2412,-484 278.9912,-481 215.9102,-481 215.9102,-454 299.2412,-454 299.2412,-481"/>
<text text-anchor="middle" x="257.5757" y="-463.3" font-family="Helvetica,sans-Serif" font-size="14.00" fill="#ffa500">ViperNews</text>
</g>
<!-- Uzo Reto&#45;&#45;ViperNews -->
<g id="edge19" class="edge">
<title>Uzo Reto--ViperNews</title>
<path fill="none" stroke="#ffffff" d="M106.3026,-467.5C137.8502,-467.5 183.0462,-467.5 215.8142,-467.5"/>
</g>
<!-- ViperNews  -->
<g id="node27" class="node">
<title>ViperNews </title>
<polygon fill="#c16ffa" stroke="#c16ffa" points="487.7051,-481 485.4551,-484 469.7051,-484 467.4551,-481 400.5921,-481 400.5921,-454 487.7051,-454 487.7051,-481"/>
<text text-anchor="middle" x="444.1486" y="-463.3" font-family="Helvetica,sans-Serif" font-size="14.00" fill="#ffa500">ViperNews </text>
</g>
<!-- ViperNews&#45;&#45;ViperNews  -->
<g id="edge20" class="edge">
<title>ViperNews--ViperNews </title>
<path fill="none" stroke="#ffffff" d="M299.4463,-467.5C329.5287,-467.5 369.985,-467.5 400.4718,-467.5"/>
</g>
<!--  UsenetNews\nNovaUsenet -->
<g id="node28" class="node">
<title> UsenetNews\nNovaUsenet</title>
<polygon fill="#c16ffa" stroke="#c16ffa" points="675.7863,-488.1019 576.3229,-488.1019 576.3229,-446.8981 675.7863,-446.8981 675.7863,-488.1019"/>
<text text-anchor="middle" x="626.0546" y="-471.7" font-family="Helvetica,sans-Serif" font-size="14.00" fill="#ffffff"> UsenetNews</text>
<text text-anchor="middle" x="626.0546" y="-454.9" font-family="Helvetica,sans-Serif" font-size="14.00" fill="#ffffff">NovaUsenet</text>
</g>
<!-- ViperNews &#45;&#45; UsenetNews\nNovaUsenet -->
<g id="edge21" class="edge">
<title>ViperNews -- UsenetNews\nNovaUsenet</title>
<path fill="none" stroke="#ffffff" d="M487.7196,-467.5C514.417,-467.5 548.6711,-467.5 576.4137,-467.5"/>
</g>
<!-- UsenetExpress -->
<g id="node29" class="node">
<title>UsenetExpress</title>
<polygon fill="#2a7325" stroke="#2a7325" points="124.4649,-548 13.6501,-548 13.6501,-521 124.4649,-521 124.4649,-548"/>
<text text-anchor="middle" x="69.0575" y="-530.3" font-family="Helvetica,sans-Serif" font-size="14.00" fill="#ffffff">UsenetExpress</text>
</g>
<!-- UsenetExpress  -->
<g id="node30" class="node">
<title>UsenetExpress </title>
<polygon fill="#2a7325" stroke="#2a7325" points="314.8739,-571 200.2775,-571 200.2775,-544 314.8739,-544 314.8739,-571"/>
<text text-anchor="middle" x="257.5757" y="-553.3" font-family="Helvetica,sans-Serif" font-size="14.00" fill="#ffffff">UsenetExpress </text>
</g>
<!-- UsenetExpress&#45;&#45;UsenetExpress  -->
<g id="edge22" class="edge">
<title>UsenetExpress--UsenetExpress </title>
<path fill="none" stroke="#ffffff" d="M124.5995,-541.2764C148.3851,-544.1783 176.1517,-547.5659 200.142,-550.4929"/>
</g>
<!-- NewsGroupDirect -->
<g id="node35" class="node">
<title>NewsGroupDirect</title>
<polygon fill="#2a7325" stroke="#2a7325" points="321.0183,-526 194.1331,-526 194.1331,-499 321.0183,-499 321.0183,-526"/>
<text text-anchor="middle" x="257.5757" y="-508.3" font-family="Helvetica,sans-Serif" font-size="14.00" fill="#ffffff">NewsGroupDirect</text>
</g>
<!-- UsenetExpress&#45;&#45;NewsGroupDirect -->
<g id="edge27" class="edge">
<title>UsenetExpress--NewsGroupDirect</title>
<path fill="none" stroke="#ffffff" d="M124.5995,-528.0183C146.4301,-525.4706 171.6142,-522.5317 194.1544,-519.9012"/>
</g>
<!-- UsenetExpress &#160; -->
<g id="node31" class="node">
<title>UsenetExpress  </title>
<polygon fill="#2a7325" stroke="#2a7325" points="503.3376,-616 384.9596,-616 384.9596,-589 503.3376,-589 503.3376,-616"/>
<text text-anchor="middle" x="444.1486" y="-598.3" font-family="Helvetica,sans-Serif" font-size="14.00" fill="#ffffff">UsenetExpress  </text>
</g>
<!-- UsenetExpress &#45;&#45;UsenetExpress &#160; -->
<g id="edge23" class="edge">
<title>UsenetExpress --UsenetExpress  </title>
<path fill="none" stroke="#ffffff" d="M313.5537,-571.0015C337.0604,-576.6711 364.351,-583.2534 387.8879,-588.9303"/>
</g>
<!-- NewsDemon -->
<g id="node33" class="node">
<title>NewsDemon</title>
<polygon fill="#2a7325" stroke="#2a7325" points="492.2595,-571 396.0377,-571 396.0377,-544 492.2595,-544 492.2595,-571"/>
<text text-anchor="middle" x="444.1486" y="-553.3" font-family="Helvetica,sans-Serif" font-size="14.00" fill="#ffffff">NewsDemon</text>
</g>
<!-- UsenetExpress &#45;&#45;NewsDemon -->
<g id="edge25" class="edge">
<title>UsenetExpress --NewsDemon</title>
<path fill="none" stroke="#ffffff" d="M315.0761,-557.5C340.9869,-557.5 371.2392,-557.5 395.9404,-557.5"/>
</g>
<!-- NewsGroupDirect  -->
<g id="node34" class="node">
<title>NewsGroupDirect </title>
<polygon fill="#2a7325" stroke="#2a7325" points="509.4814,-526 378.8158,-526 378.8158,-499 509.4814,-499 509.4814,-526"/>
<text text-anchor="middle" x="444.1486" y="-508.3" font-family="Helvetica,sans-Serif" font-size="14.00" fill="#ffffff">NewsGroupDirect </text>
</g>
<!-- UsenetExpress &#45;&#45;NewsGroupDirect  -->
<g id="edge26" class="edge">
<title>UsenetExpress --NewsGroupDirect </title>
<path fill="none" stroke="#ffffff" d="M313.5537,-543.9985C337.0604,-538.3289 364.351,-531.7466 387.8879,-526.0697"/>
</g>
<!-- UsenetNews\nUsenetPrime\n UsenetFire\nThunderNews\n theCubeNet -->
<g id="node32" class="node">
<title>UsenetNews\nUsenetPrime\n UsenetFire\nThunderNews\n theCubeNet</title>
<polygon fill="#2a7325" stroke="#2a7325" points="677.6767,-648.5 574.4325,-648.5 574.4325,-556.5 677.6767,-556.5 677.6767,-648.5"/>
<text text-anchor="middle" x="626.0546" y="-631.9" font-family="Helvetica,sans-Serif" font-size="14.00" fill="#ffffff">UsenetNews</text>
<text text-anchor="middle" x="626.0546" y="-615.1" font-family="Helvetica,sans-Serif" font-size="14.00" fill="#ffffff">UsenetPrime</text>
<text text-anchor="middle" x="626.0546" y="-598.3" font-family="Helvetica,sans-Serif" font-size="14.00" fill="#ffffff"> UsenetFire</text>
<text text-anchor="middle" x="626.0546" y="-581.5" font-family="Helvetica,sans-Serif" font-size="14.00" fill="#ffffff">ThunderNews</text>
<text text-anchor="middle" x="626.0546" y="-564.7" font-family="Helvetica,sans-Serif" font-size="14.00" fill="#ffffff"> theCubeNet</text>
</g>
<!-- UsenetExpress &#160;&#45;&#45;UsenetNews\nUsenetPrime\n UsenetFire\nThunderNews\n theCubeNet -->
<g id="edge24" class="edge">
<title>UsenetExpress  --UsenetNews\nUsenetPrime\n UsenetFire\nThunderNews\n theCubeNet</title>
<path fill="none" stroke="#ffffff" d="M503.4597,-602.5C526.3728,-602.5 552.3466,-602.5 574.4697,-602.5"/>
</g>
<!-- NewsGroupDirect&#45;&#45;NewsGroupDirect  -->
<g id="edge28" class="edge">
<title>NewsGroupDirect--NewsGroupDirect </title>
<path fill="none" stroke="#ffffff" d="M321.0011,-512.5C339.5938,-512.5 359.9556,-512.5 378.6733,-512.5"/>
</g>
<!-- Abavia -->
<g id="node36" class="node">
<title>Abavia</title>
<polygon fill="#0000ff" stroke="#0000ff" points="98.3489,-962 39.7661,-962 39.7661,-935 98.3489,-935 98.3489,-962"/>
<text text-anchor="middle" x="69.0575" y="-944.3" font-family="Helvetica,sans-Serif" font-size="14.00" fill="#ffffff">Abavia</text>
</g>
<!-- Abavia  -->
<g id="node37" class="node">
<title>Abavia </title>
<polygon fill="#0000ff" stroke="#0000ff" points="288.7581,-962 226.3933,-962 226.3933,-935 288.7581,-935 288.7581,-962"/>
<text text-anchor="middle" x="257.5757" y="-944.3" font-family="Helvetica,sans-Serif" font-size="14.00" fill="#ffffff">Abavia </text>
</g>
<!-- Abavia&#45;&#45;Abavia  -->
<g id="edge29" class="edge">
<title>Abavia--Abavia </title>
<path fill="none" stroke="#ffffff" d="M98.5135,-948.5C133.2048,-948.5 190.5945,-948.5 226.1281,-948.5"/>
</g>
<!-- Cheapnews -->
<g id="node38" class="node">
<title>Cheapnews</title>
<polygon fill="#0000ff" stroke="#0000ff" points="489.0574,-1097 399.2398,-1097 399.2398,-1070 489.0574,-1070 489.0574,-1097"/>
<text text-anchor="middle" x="444.1486" y="-1079.3" font-family="Helvetica,sans-Serif" font-size="14.00" fill="#ffffff">Cheapnews</text>
</g>
<!-- Abavia &#45;&#45;Cheapnews -->
<g id="edge30" class="edge">
<title>Abavia --Cheapnews</title>
<path fill="none" stroke="#ffffff" d="M268.6905,-962.1762C288.2813,-985.4588 331.2404,-1032.9444 377.0364,-1060.5 383.7906,-1064.5641 391.3623,-1068.0336 398.9205,-1070.9518"/>
</g>
<!-- EasyUsenet -->
<g id="node39" class="node">
<title>EasyUsenet</title>
<polygon fill="#0000ff" stroke="#0000ff" points="490.114,-1052 398.1832,-1052 398.1832,-1025 490.114,-1025 490.114,-1052"/>
<text text-anchor="middle" x="444.1486" y="-1034.3" font-family="Helvetica,sans-Serif" font-size="14.00" fill="#ffffff">EasyUsenet</text>
</g>
<!-- Abavia &#45;&#45;EasyUsenet -->
<g id="edge31" class="edge">
<title>Abavia --EasyUsenet</title>
<path fill="none" stroke="#ffffff" d="M278.9793,-962.0697C302.4238,-976.5572 341.4386,-999.5752 377.0364,-1015.5 384.5692,-1018.8698 392.756,-1022.0512 400.7385,-1024.9119"/>
</g>
<!-- Usenet.nl -->
<g id="node40" class="node">
<title>Usenet.nl</title>
<polygon fill="#0000ff" stroke="#0000ff" points="481.7735,-1007 406.5237,-1007 406.5237,-980 481.7735,-980 481.7735,-1007"/>
<text text-anchor="middle" x="444.1486" y="-989.3" font-family="Helvetica,sans-Serif" font-size="14.00" fill="#ffffff">Usenet.nl</text>
</g>
<!-- Abavia &#45;&#45;Usenet.nl -->
<g id="edge32" class="edge">
<title>Abavia --Usenet.nl</title>
<path fill="none" stroke="#ffffff" d="M288.8038,-956.032C321.1694,-963.8383 371.7748,-976.044 406.3717,-984.3885"/>
</g>
<!-- Usenet.org -->
<g id="node41" class="node">
<title>Usenet.org</title>
<polygon fill="#0000ff" stroke="#0000ff" points="486.6113,-962 401.6859,-962 401.6859,-935 486.6113,-935 486.6113,-962"/>
<text text-anchor="middle" x="444.1486" y="-944.3" font-family="Helvetica,sans-Serif" font-size="14.00" fill="#ffffff">Usenet.org</text>
</g>
<!-- Abavia &#45;&#45;Usenet.org -->
<g id="edge33" class="edge">
<title>Abavia --Usenet.org</title>
<path fill="none" stroke="#ffffff" d="M288.8038,-948.5C319.7171,-948.5 367.27,-948.5 401.6208,-948.5"/>
</g>
<!-- Usenext -->
<g id="node42" class="node">
<title>Usenext</title>
<polygon fill="#0000ff" stroke="#0000ff" points="477.9945,-917 410.3027,-917 410.3027,-890 477.9945,-890 477.9945,-917"/>
<text text-anchor="middle" x="444.1486" y="-899.3" font-family="Helvetica,sans-Serif" font-size="14.00" fill="#ffffff">Usenext</text>
</g>
<!-- Abavia &#45;&#45;Usenext -->
<g id="edge34" class="edge">
<title>Abavia --Usenext</title>
<path fill="none" stroke="#ffffff" d="M288.8038,-940.968C322.4142,-932.8614 375.6945,-920.0106 410.2907,-911.6663"/>
</g>
<!-- XS News / Xenna -->
<g id="node43" class="node">
<title>XS News / Xenna</title>
<polygon fill="#0000ff" stroke="#0000ff" points="506.8474,-872 381.4498,-872 381.4498,-845 506.8474,-845 506.8474,-872"/>
<text text-anchor="middle" x="444.1486" y="-854.3" font-family="Helvetica,sans-Serif" font-size="14.00" fill="#ffffff">XS News / Xenna</text>
</g>
<!-- Abavia &#45;&#45;XS News / Xenna -->
<g id="edge35" class="edge">
<title>Abavia --XS News / Xenna</title>
<path fill="none" stroke="#ffffff" d="M278.4821,-934.8788C301.8163,-920.09 341.0365,-896.4527 377.0364,-880.5 383.8746,-877.4698 391.2644,-874.6345 398.5548,-872.0734"/>
</g>
<!-- XS News -->
<g id="node44" class="node">
<title>XS News</title>
<polygon fill="#0000ff" stroke="#0000ff" points="480.7095,-827 407.5877,-827 407.5877,-800 480.7095,-800 480.7095,-827"/>
<text text-anchor="middle" x="444.1486" y="-809.3" font-family="Helvetica,sans-Serif" font-size="14.00" fill="#ffffff">XS News</text>
</g>
<!-- Abavia &#45;&#45;XS News -->
<g id="edge36" class="edge">
<title>Abavia --XS News</title>
<path fill="none" stroke="#ffffff" d="M268.6238,-934.6303C288.1139,-911.0323 330.9252,-862.9647 377.0364,-835.5 386.3067,-829.9784 397.1339,-825.6533 407.3523,-822.3546"/>
</g>
<!-- aEton\nBulknews\nDreamload\nGebruikhet\nI&#45;Telligent\nNewsGrabber\nNewsXS\nSMS Usenet\nStingy Usenet\nUsenet.today\nUsenetAgency\nUsenetDiscount\nUsenetDiscounter.com\nUsenet&#45;Server\nUseNight\nXS Usenet\nZ51 -->
<g id="node45" class="node">
<title>aEton\nBulknews\nDreamload\nGebruikhet\nI-Telligent\nNewsGrabber\nNewsXS\nSMS Usenet\nStingy Usenet\nUsenet.today\nUsenetAgency\nUsenetDiscount\nUsenetDiscounter.com\nUsenet-Server\nUseNight\nXS Usenet\nZ51</title>
<polygon fill="#0000ff" stroke="#0000ff" points="704.6288,-960.1003 547.4804,-960.1003 547.4804,-666.8997 704.6288,-666.8997 704.6288,-960.1003"/>
<text text-anchor="middle" x="626.0546" y="-943.7" font-family="Helvetica,sans-Serif" font-size="14.00" fill="#ffffff">aEton</text>
<text text-anchor="middle" x="626.0546" y="-926.9" font-family="Helvetica,sans-Serif" font-size="14.00" fill="#ffffff">Bulknews</text>
<text text-anchor="middle" x="626.0546" y="-910.1" font-family="Helvetica,sans-Serif" font-size="14.00" fill="#ffffff">Dreamload</text>
<text text-anchor="middle" x="626.0546" y="-893.3" font-family="Helvetica,sans-Serif" font-size="14.00" fill="#ffffff">Gebruikhet</text>
<text text-anchor="middle" x="626.0546" y="-876.5" font-family="Helvetica,sans-Serif" font-size="14.00" fill="#ffffff">I-Telligent</text>
<text text-anchor="middle" x="626.0546" y="-859.7" font-family="Helvetica,sans-Serif" font-size="14.00" fill="#ffffff">NewsGrabber</text>
<text text-anchor="middle" x="626.0546" y="-842.9" font-family="Helvetica,sans-Serif" font-size="14.00" fill="#ffffff">NewsXS</text>
<text text-anchor="middle" x="626.0546" y="-826.1" font-family="Helvetica,sans-Serif" font-size="14.00" fill="#ffffff">SMS Usenet</text>
<text text-anchor="middle" x="626.0546" y="-809.3" font-family="Helvetica,sans-Serif" font-size="14.00" fill="#ffffff">Stingy Usenet</text>
<text text-anchor="middle" x="626.0546" y="-792.5" font-family="Helvetica,sans-Serif" font-size="14.00" fill="#ffffff">Usenet.today</text>
<text text-anchor="middle" x="626.0546" y="-775.7" font-family="Helvetica,sans-Serif" font-size="14.00" fill="#ffffff">UsenetAgency</text>
<text text-anchor="middle" x="626.0546" y="-758.9" font-family="Helvetica,sans-Serif" font-size="14.00" fill="#ffffff">UsenetDiscount</text>
<text text-anchor="middle" x="626.0546" y="-742.1" font-family="Helvetica,sans-Serif" font-size="14.00" fill="#ffffff">UsenetDiscounter.com</text>
<text text-anchor="middle" x="626.0546" y="-725.3" font-family="Helvetica,sans-Serif" font-size="14.00" fill="#ffffff">Usenet-Server</text>
<text text-anchor="middle" x="626.0546" y="-708.5" font-family="Helvetica,sans-Serif" font-size="14.00" fill="#ffffff">UseNight</text>
<text text-anchor="middle" x="626.0546" y="-691.7" font-family="Helvetica,sans-Serif" font-size="14.00" fill="#ffffff">XS Usenet</text>
<text text-anchor="middle" x="626.0546" y="-674.9" font-family="Helvetica,sans-Serif" font-size="14.00" fill="#ffffff">Z51</text>
</g>
<!-- XS News&#45;&#45;aEton\nBulknews\nDreamload\nGebruikhet\nI&#45;Telligent\nNewsGrabber\nNewsXS\nSMS Usenet\nStingy Usenet\nUsenet.today\nUsenetAgency\nUsenetDiscount\nUsenetDiscounter.com\nUsenet&#45;Server\nUseNight\nXS Usenet\nZ51 -->
<g id="edge37" class="edge">
<title>XS News--aEton\nBulknews\nDreamload\nGebruikhet\nI-Telligent\nNewsGrabber\nNewsXS\nSMS Usenet\nStingy Usenet\nUsenet.today\nUsenetAgency\nUsenetDiscount\nUsenetDiscounter.com\nUsenet-Server\nUseNight\nXS Usenet\nZ51</title>
<path fill="none" stroke="#ffffff" d="M480.96,-813.5C500.062,-813.5 524.1735,-813.5 547.2268,-813.5"/>
</g>
<!-- Omicron -->
<g id="node46" class="node">
<title>Omicron</title>
<polygon fill="#ff0000" stroke="#ff0000" points="103.4412,-1448 34.6738,-1448 34.6738,-1421 103.4412,-1421 103.4412,-1448"/>
<text text-anchor="middle" x="69.0575" y="-1430.3" font-family="Helvetica,sans-Serif" font-size="14.00" fill="#ffffff">Omicron</text>
</g>
<!-- Eweka Internet Services -->
<g id="node47" class="node">
<title>Eweka Internet Services</title>
<polygon fill="#ff0000" stroke="#ff0000" points="340.9971,-1538 174.1543,-1538 174.1543,-1511 340.9971,-1511 340.9971,-1538"/>
<text text-anchor="middle" x="257.5757" y="-1520.3" font-family="Helvetica,sans-Serif" font-size="14.00" fill="#ffffff">Eweka Internet Services</text>
</g>
<!-- Omicron&#45;&#45;Eweka Internet Services -->
<g id="edge38" class="edge">
<title>Omicron--Eweka Internet Services</title>
<path fill="none" stroke="#ffffff" d="M97.6894,-1448.1691C133.3283,-1465.1834 193.8159,-1494.0606 229.2921,-1510.9972"/>
</g>
<!-- HW Media -->
<g id="node49" class="node">
<title>HW Media</title>
<polygon fill="#ff0000" stroke="#ff0000" points="298.4032,-1448 216.7482,-1448 216.7482,-1421 298.4032,-1421 298.4032,-1448"/>
<text text-anchor="middle" x="257.5757" y="-1430.3" font-family="Helvetica,sans-Serif" font-size="14.00" fill="#ffffff">HW Media</text>
</g>
<!-- Omicron&#45;&#45;HW Media -->
<g id="edge40" class="edge">
<title>Omicron--HW Media</title>
<path fill="none" stroke="#ffffff" d="M103.6346,-1434.5C135.5235,-1434.5 182.894,-1434.5 216.6555,-1434.5"/>
</g>
<!-- Base IP / HW Media -->
<g id="node56" class="node">
<title>Base IP / HW Media</title>
<polygon fill="#ff0000" stroke="#ff0000" points="328.5939,-1256 186.5575,-1256 186.5575,-1229 328.5939,-1229 328.5939,-1256"/>
<text text-anchor="middle" x="257.5757" y="-1238.3" font-family="Helvetica,sans-Serif" font-size="14.00" fill="#ffffff">Base IP / HW Media</text>
</g>
<!-- Omicron&#45;&#45;Base IP / HW Media -->
<g id="edge47" class="edge">
<title>Omicron--Base IP / HW Media</title>
<path fill="none" stroke="#ffffff" d="M82.3137,-1420.9989C116.8435,-1385.8315 209.2879,-1291.6797 244.0818,-1256.2431"/>
</g>
<!-- Eweka -->
<g id="node48" class="node">
<title>Eweka</title>
<polygon fill="#ff0000" stroke="#ff0000" points="473.157,-1583 470.907,-1586 455.157,-1586 452.907,-1583 415.1402,-1583 415.1402,-1556 473.157,-1556 473.157,-1583"/>
<text text-anchor="middle" x="444.1486" y="-1565.3" font-family="Helvetica,sans-Serif" font-size="14.00" fill="#ffa500">Eweka</text>
</g>
<!-- Eweka Internet Services&#45;&#45;Eweka -->
<g id="edge39" class="edge">
<title>Eweka Internet Services--Eweka</title>
<path fill="none" stroke="#ffffff" d="M313.5537,-1538.0015C346.9353,-1546.0529 387.948,-1555.9448 415.0046,-1562.4707"/>
</g>
<!-- Astraweb -->
<g id="node50" class="node">
<title>Astraweb</title>
<polygon fill="#ff0000" stroke="#ff0000" points="481.4916,-1538 406.8056,-1538 406.8056,-1511 481.4916,-1511 481.4916,-1538"/>
<text text-anchor="middle" x="444.1486" y="-1520.3" font-family="Helvetica,sans-Serif" font-size="14.00" fill="#ffffff">Astraweb</text>
</g>
<!-- HW Media&#45;&#45;Astraweb -->
<g id="edge41" class="edge">
<title>HW Media--Astraweb</title>
<path fill="none" stroke="#ffffff" d="M278.9793,-1448.0697C302.4238,-1462.5572 341.4386,-1485.5752 377.0364,-1501.5 386.4805,-1505.7248 396.9526,-1509.6535 406.7612,-1513.0254"/>
</g>
<!-- Easynews -->
<g id="node51" class="node">
<title>Easynews</title>
<polygon fill="#ff0000" stroke="#ff0000" points="483.9399,-1493 404.3573,-1493 404.3573,-1466 483.9399,-1466 483.9399,-1493"/>
<text text-anchor="middle" x="444.1486" y="-1475.3" font-family="Helvetica,sans-Serif" font-size="14.00" fill="#ffffff">Easynews</text>
</g>
<!-- HW Media&#45;&#45;Easynews -->
<g id="edge42" class="edge">
<title>HW Media--Easynews</title>
<path fill="none" stroke="#ffffff" d="M298.5199,-1444.3754C329.9492,-1451.956 373.0983,-1462.3632 404.2609,-1469.8794"/>
</g>
<!-- Newsgroup Ninja -->
<g id="node52" class="node">
<title>Newsgroup Ninja</title>
<polygon fill="#ff0000" stroke="#ff0000" points="505.2118,-1448 383.0854,-1448 383.0854,-1421 505.2118,-1421 505.2118,-1448"/>
<text text-anchor="middle" x="444.1486" y="-1430.3" font-family="Helvetica,sans-Serif" font-size="14.00" fill="#ffffff">Newsgroup Ninja</text>
</g>
<!-- HW Media&#45;&#45;Newsgroup Ninja -->
<g id="edge43" class="edge">
<title>HW Media--Newsgroup Ninja</title>
<path fill="none" stroke="#ffffff" d="M298.5199,-1434.5C323.1914,-1434.5 355.0846,-1434.5 382.7326,-1434.5"/>
</g>
<!-- NewsHosting -->
<g id="node53" class="node">
<title>NewsHosting</title>
<polygon fill="#ff0000" stroke="#ff0000" points="493.597,-1403 394.7002,-1403 394.7002,-1376 493.597,-1376 493.597,-1403"/>
<text text-anchor="middle" x="444.1486" y="-1385.3" font-family="Helvetica,sans-Serif" font-size="14.00" fill="#ffffff">NewsHosting</text>
</g>
<!-- HW Media&#45;&#45;NewsHosting -->
<g id="edge44" class="edge">
<title>HW Media--NewsHosting</title>
<path fill="none" stroke="#ffffff" d="M298.5199,-1424.6246C326.8384,-1417.7943 364.6717,-1408.6692 394.6785,-1401.4318"/>
</g>
<!-- UsenetServer -->
<g id="node54" class="node">
<title>UsenetServer</title>
<polygon fill="#ff0000" stroke="#ff0000" points="494.7175,-1358 393.5797,-1358 393.5797,-1331 494.7175,-1331 494.7175,-1358"/>
<text text-anchor="middle" x="444.1486" y="-1340.3" font-family="Helvetica,sans-Serif" font-size="14.00" fill="#ffffff">UsenetServer</text>
</g>
<!-- HW Media&#45;&#45;UsenetServer -->
<g id="edge45" class="edge">
<title>HW Media--UsenetServer</title>
<path fill="none" stroke="#ffffff" d="M278.4821,-1420.8788C301.8163,-1406.09 341.0365,-1382.4527 377.0364,-1366.5 383.8746,-1363.4698 391.2644,-1360.6345 398.5548,-1358.0734"/>
</g>
<!-- Alibis\nAnonyNews\nAtlantisNews\nBinary Boy\nBinTube\nBlockNews\nBudgetNews\nFast&#45;Usenet\nFirstload\nForte Agent\nFrugal Usenet\nHitNews\niLoad\nMaximumUsenet\nNewsFusion\nNewsGroup&#45;Binaries\nNewsGroupDownload\nNewsLeecher\nNgroups\nPrepaid&#45;Usenet\nShemes\nSimonNews\nSnelNL\nUncensored Newsfeed\nUsenet&#45;News\nUsenet.nl\nUsenet.se\nUsenet4u\nUsenetAccess\nUseNetNow\nUsenetStorm\nUsenext\nXenNews -->
<g id="node55" class="node">
<title>Alibis\nAnonyNews\nAtlantisNews\nBinary Boy\nBinTube\nBlockNews\nBudgetNews\nFast-Usenet\nFirstload\nForte Agent\nFrugal Usenet\nHitNews\niLoad\nMaximumUsenet\nNewsFusion\nNewsGroup-Binaries\nNewsGroupDownload\nNewsLeecher\nNgroups\nPrepaid-Usenet\nShemes\nSimonNews\nSnelNL\nUncensored Newsfeed\nUsenet-News\nUsenet.nl\nUsenet.se\nUsenet4u\nUsenetAccess\nUseNetNow\nUsenetStorm\nUsenext\nXenNews</title>
<polygon fill="#ff0000" stroke="#ff0000" points="704.6427,-1717.9001 547.4665,-1717.9001 547.4665,-1155.0999 704.6427,-1155.0999 704.6427,-1717.9001"/>
<text text-anchor="middle" x="626.0546" y="-1701.1" font-family="Helvetica,sans-Serif" font-size="14.00" fill="#ffffff">Alibis</text>
<text text-anchor="middle" x="626.0546" y="-1684.3" font-family="Helvetica,sans-Serif" font-size="14.00" fill="#ffffff">AnonyNews</text>
<text text-anchor="middle" x="626.0546" y="-1667.5" font-family="Helvetica,sans-Serif" font-size="14.00" fill="#ffffff">AtlantisNews</text>
<text text-anchor="middle" x="626.0546" y="-1650.7" font-family="Helvetica,sans-Serif" font-size="14.00" fill="#ffffff">Binary Boy</text>
<text text-anchor="middle" x="626.0546" y="-1633.9" font-family="Helvetica,sans-Serif" font-size="14.00" fill="#ffffff">BinTube</text>
<text text-anchor="middle" x="626.0546" y="-1617.1" font-family="Helvetica,sans-Serif" font-size="14.00" fill="#ffffff">BlockNews</text>
<text text-anchor="middle" x="626.0546" y="-1600.3" font-family="Helvetica,sans-Serif" font-size="14.00" fill="#ffffff">BudgetNews</text>
<text text-anchor="middle" x="626.0546" y="-1583.5" font-family="Helvetica,sans-Serif" font-size="14.00" fill="#ffffff">Fast-Usenet</text>
<text text-anchor="middle" x="626.0546" y="-1566.7" font-family="Helvetica,sans-Serif" font-size="14.00" fill="#ffffff">Firstload</text>
<text text-anchor="middle" x="626.0546" y="-1549.9" font-family="Helvetica,sans-Serif" font-size="14.00" fill="#ffffff">Forte Agent</text>
<text text-anchor="middle" x="626.0546" y="-1533.1" font-family="Helvetica,sans-Serif" font-size="14.00" fill="#ffffff">Frugal Usenet</text>
<text text-anchor="middle" x="626.0546" y="-1516.3" font-family="Helvetica,sans-Serif" font-size="14.00" fill="#ffffff">HitNews</text>
<text text-anchor="middle" x="626.0546" y="-1499.5" font-family="Helvetica,sans-Serif" font-size="14.00" fill="#ffffff">iLoad</text>
<text text-anchor="middle" x="626.0546" y="-1482.7" font-family="Helvetica,sans-Serif" font-size="14.00" fill="#ffffff">MaximumUsenet</text>
<text text-anchor="middle" x="626.0546" y="-1465.9" font-family="Helvetica,sans-Serif" font-size="14.00" fill="#ffffff">NewsFusion</text>
<text text-anchor="middle" x="626.0546" y="-1449.1" font-family="Helvetica,sans-Serif" font-size="14.00" fill="#ffffff">NewsGroup-Binaries</text>
<text text-anchor="middle" x="626.0546" y="-1432.3" font-family="Helvetica,sans-Serif" font-size="14.00" fill="#ffffff">NewsGroupDownload</text>
<text text-anchor="middle" x="626.0546" y="-1415.5" font-family="Helvetica,sans-Serif" font-size="14.00" fill="#ffffff">NewsLeecher</text>
<text text-anchor="middle" x="626.0546" y="-1398.7" font-family="Helvetica,sans-Serif" font-size="14.00" fill="#ffffff">Ngroups</text>
<text text-anchor="middle" x="626.0546" y="-1381.9" font-family="Helvetica,sans-Serif" font-size="14.00" fill="#ffffff">Prepaid-Usenet</text>
<text text-anchor="middle" x="626.0546" y="-1365.1" font-family="Helvetica,sans-Serif" font-size="14.00" fill="#ffffff">Shemes</text>
<text text-anchor="middle" x="626.0546" y="-1348.3" font-family="Helvetica,sans-Serif" font-size="14.00" fill="#ffffff">SimonNews</text>
<text text-anchor="middle" x="626.0546" y="-1331.5" font-family="Helvetica,sans-Serif" font-size="14.00" fill="#ffffff">SnelNL</text>
<text text-anchor="middle" x="626.0546" y="-1314.7" font-family="Helvetica,sans-Serif" font-size="14.00" fill="#ffffff">Uncensored Newsfeed</text>
<text text-anchor="middle" x="626.0546" y="-1297.9" font-family="Helvetica,sans-Serif" font-size="14.00" fill="#ffffff">Usenet-News</text>
<text text-anchor="middle" x="626.0546" y="-1281.1" font-family="Helvetica,sans-Serif" font-size="14.00" fill="#ffffff">Usenet.nl</text>
<text text-anchor="middle" x="626.0546" y="-1264.3" font-family="Helvetica,sans-Serif" font-size="14.00" fill="#ffffff">Usenet.se</text>
<text text-anchor="middle" x="626.0546" y="-1247.5" font-family="Helvetica,sans-Serif" font-size="14.00" fill="#ffffff">Usenet4u</text>
<text text-anchor="middle" x="626.0546" y="-1230.7" font-family="Helvetica,sans-Serif" font-size="14.00" fill="#ffffff">UsenetAccess</text>
<text text-anchor="middle" x="626.0546" y="-1213.9" font-family="Helvetica,sans-Serif" font-size="14.00" fill="#ffffff">UseNetNow</text>
<text text-anchor="middle" x="626.0546" y="-1197.1" font-family="Helvetica,sans-Serif" font-size="14.00" fill="#ffffff">UsenetStorm</text>
<text text-anchor="middle" x="626.0546" y="-1180.3" font-family="Helvetica,sans-Serif" font-size="14.00" fill="#ffffff">Usenext</text>
<text text-anchor="middle" x="626.0546" y="-1163.5" font-family="Helvetica,sans-Serif" font-size="14.00" fill="#ffffff">XenNews</text>
</g>
<!-- NewsHosting&#45;&#45;Alibis\nAnonyNews\nAtlantisNews\nBinary Boy\nBinTube\nBlockNews\nBudgetNews\nFast&#45;Usenet\nFirstload\nForte Agent\nFrugal Usenet\nHitNews\niLoad\nMaximumUsenet\nNewsFusion\nNewsGroup&#45;Binaries\nNewsGroupDownload\nNewsLeecher\nNgroups\nPrepaid&#45;Usenet\nShemes\nSimonNews\nSnelNL\nUncensored Newsfeed\nUsenet&#45;News\nUsenet.nl\nUsenet.se\nUsenet4u\nUsenetAccess\nUseNetNow\nUsenetStorm\nUsenext\nXenNews -->
<g id="edge46" class="edge">
<title>NewsHosting--Alibis\nAnonyNews\nAtlantisNews\nBinary Boy\nBinTube\nBlockNews\nBudgetNews\nFast-Usenet\nFirstload\nForte Agent\nFrugal Usenet\nHitNews\niLoad\nMaximumUsenet\nNewsFusion\nNewsGroup-Binaries\nNewsGroupDownload\nNewsLeecher\nNgroups\nPrepaid-Usenet\nShemes\nSimonNews\nSnelNL\nUncensored Newsfeed\nUsenet-News\nUsenet.nl\nUsenet.se\nUsenet4u\nUsenetAccess\nUseNetNow\nUsenetStorm\nUsenext\nXenNews</title>
<path fill="none" stroke="#ffffff" d="M493.375,-1402.2189C509.9996,-1406.5143 528.9988,-1411.4232 547.3239,-1416.1579"/>
</g>
<!-- TweakNews -->
<g id="node57" class="node">
<title>TweakNews</title>
<polygon fill="#ff0000" stroke="#ff0000" points="490.3691,-1301 397.9281,-1301 397.9281,-1274 490.3691,-1274 490.3691,-1301"/>
<text text-anchor="middle" x="444.1486" y="-1283.3" font-family="Helvetica,sans-Serif" font-size="14.00" fill="#ffffff">TweakNews</text>
</g>
<!-- Base IP / HW Media&#45;&#45;TweakNews -->
<g id="edge48" class="edge">
<title>Base IP / HW Media--TweakNews</title>
<path fill="none" stroke="#ffffff" d="M313.5537,-1256.0015C340.4951,-1262.4996 372.4072,-1270.1965 397.9415,-1276.3552"/>
</g>
<!-- PureUsenet -->
<g id="node58" class="node">
<title>PureUsenet</title>
<polygon fill="#ff0000" stroke="#ff0000" points="489.056,-1256 399.2412,-1256 399.2412,-1229 489.056,-1229 489.056,-1256"/>
<text text-anchor="middle" x="444.1486" y="-1238.3" font-family="Helvetica,sans-Serif" font-size="14.00" fill="#ffffff">PureUsenet</text>
</g>
<!-- Base IP / HW Media&#45;&#45;PureUsenet -->
<g id="edge49" class="edge">
<title>Base IP / HW Media--PureUsenet</title>
<path fill="none" stroke="#ffffff" d="M328.6431,-1242.5C352.3284,-1242.5 378.0426,-1242.5 399.1833,-1242.5"/>
</g>
<!-- SunnyUsenet -->
<g id="node59" class="node">
<title>SunnyUsenet</title>
<polygon fill="#ff0000" stroke="#ff0000" points="494.178,-1211 394.1192,-1211 394.1192,-1184 494.178,-1184 494.178,-1211"/>
<text text-anchor="middle" x="444.1486" y="-1193.3" font-family="Helvetica,sans-Serif" font-size="14.00" fill="#ffffff">SunnyUsenet</text>
</g>
<!-- Base IP / HW Media&#45;&#45;SunnyUsenet -->
<g id="edge50" class="edge">
<title>Base IP / HW Media--SunnyUsenet</title>
<path fill="none" stroke="#ffffff" d="M313.5537,-1228.9985C339.0998,-1222.837 369.1149,-1215.5976 393.9242,-1209.6137"/>
</g>
<!-- XLned -->
<g id="node60" class="node">
<title>XLned</title>
<polygon fill="#ff0000" stroke="#ff0000" points="472.6175,-1142 415.6797,-1142 415.6797,-1115 472.6175,-1115 472.6175,-1142"/>
<text text-anchor="middle" x="444.1486" y="-1124.3" font-family="Helvetica,sans-Serif" font-size="14.00" fill="#ffffff">XLned</text>
</g>
<!-- Base IP / HW Media&#45;&#45;XLned -->
<g id="edge51" class="edge">
<title>Base IP / HW Media--XLned</title>
<path fill="none" stroke="#ffffff" d="M279.7107,-1228.975C315.6183,-1207.0347 386.1533,-1163.9364 422.0424,-1142.0074"/>
</g>
<!-- ExtremeUsenet\nUsenetBucket -->
<g id="node61" class="node">
<title>ExtremeUsenet\nUsenetBucket</title>
<polygon fill="#ff0000" stroke="#ff0000" points="682.5141,-1137.1019 569.5951,-1137.1019 569.5951,-1095.8981 682.5141,-1095.8981 682.5141,-1137.1019"/>
<text text-anchor="middle" x="626.0546" y="-1120.7" font-family="Helvetica,sans-Serif" font-size="14.00" fill="#ffffff">ExtremeUsenet</text>
<text text-anchor="middle" x="626.0546" y="-1103.9" font-family="Helvetica,sans-Serif" font-size="14.00" fill="#ffffff">UsenetBucket</text>
</g>
<!-- XLned&#45;&#45;ExtremeUsenet\nUsenetBucket -->
<g id="edge52" class="edge">
<title>XLned--ExtremeUsenet\nUsenetBucket</title>
<path fill="none" stroke="#ffffff" d="M472.5714,-1126.625C498.4517,-1124.9177 537.4238,-1122.3468 569.6199,-1120.2229"/>
</g>
<!-- Company -->
<g id="node62" class="node">
<title>Company</title>
<polygon fill="none" stroke="#ffffff" points="106.9552,-1763 31.1598,-1763 31.1598,-1736 106.9552,-1736 106.9552,-1763"/>
<text text-anchor="middle" x="69.0575" y="-1745.3" font-family="Helvetica,sans-Serif" font-size="14.00" fill="#ffffff">Company</text>
</g>
<!-- Backbone -->
<g id="node63" class="node">
<title>Backbone</title>
<polygon fill="none" stroke="#ffffff" points="296.8257,-1763 218.3257,-1763 218.3257,-1736 296.8257,-1736 296.8257,-1763"/>
<text text-anchor="middle" x="257.5757" y="-1745.3" font-family="Helvetica,sans-Serif" font-size="14.00" fill="#ffffff">Backbone</text>
</g>
<!-- Company&#45;&#45;Backbone -->
<!-- Provider -->
<g id="node64" class="node">
<title>Provider</title>
<polygon fill="none" stroke="#ffffff" points="478.2609,-1763 410.0363,-1763 410.0363,-1736 478.2609,-1736 478.2609,-1763"/>
<text text-anchor="middle" x="444.1486" y="-1745.3" font-family="Helvetica,sans-Serif" font-size="14.00" fill="#ffffff">Provider</text>
</g>
<!-- Backbone&#45;&#45;Provider -->
<!-- Resellers -->
<g id="node65" class="node">
<title>Resellers</title>
<polygon fill="none" stroke="#ffffff" points="663.3835,-1763 588.7257,-1763 588.7257,-1736 663.3835,-1736 663.3835,-1763"/>
<text text-anchor="middle" x="626.0546" y="-1745.3" font-family="Helvetica,sans-Serif" font-size="14.00" fill="#ffffff">Resellers</text>
</g>
<!-- Provider&#45;&#45;Resellers -->
<!-- Vesion 21&#45;12&#45;2020 -->
<g id="node66" class="node">
<title>Vesion 21-12-2020</title>
<polygon fill="none" stroke="#ffffff" points="324.8396,-1808 190.3118,-1808 190.3118,-1781 324.8396,-1781 324.8396,-1808"/>
<text text-anchor="middle" x="257.5757" y="-1790.3" font-family="Helvetica,sans-Serif" font-size="14.00" fill="#ffffff">Vesion 21-12-2020</text>
</g>
<!-- NTD -->
<g id="node67" class="node">
<title>NTD</title>
<polygon fill="#000000" stroke="#ffffff" points="96.0575,-1808 93.8075,-1811 78.0575,-1811 75.8075,-1808 42.0575,-1808 42.0575,-1781 96.0575,-1781 96.0575,-1808"/>
<text text-anchor="middle" x="69.0575" y="-1790.3" font-family="Helvetica,sans-Serif" font-size="14.00" fill="#ffa500">NTD</text>
</g>
<!-- NTD&#45;&#45;Vesion 21&#45;12&#45;2020 -->
</g>
</svg>