<?xml version="1.0" encoding="UTF-8" ?>
<svg xmlns="http://www.w3.org/2000/svg" xmlns:xlink="http://www.w3.org/1999/xlink" width="713pt" height="1881pt" viewBox="0.00 0.00 712.85 1880.88">
<g id="graph0" class="graph" transform="scale(1 1) rotate(0) translate(4 1876.8829)">
<title>graphname</title>
<polygon fill="#ffffff" stroke="transparent" points="-4,4 -4,-1876.8829 708.8484,-1876.8829 708.8484,4 -4,4"/>
<!-- United Newsserver  -->
<g id="node1" class="node">
<title>United Newsserver </title>
<polygon fill="none" stroke="#91c49b" points="138.1725,-50 -.0575,-50 -.0575,-23 138.1725,-23 138.1725,-50"/>
<text text-anchor="middle" x="69.0575" y="-32.3" font-family="Helvetica,sans-Serif" font-size="14.00" fill="#000000">United Newsserver </text>
</g>
<!-- Elbracht -->
<g id="node2" class="node">
<title>Elbracht</title>
<polygon fill="none" stroke="#91c49b" points="291.4188,-50 223.7326,-50 223.7326,-23 291.4188,-23 291.4188,-50"/>
<text text-anchor="middle" x="257.5757" y="-32.3" font-family="Helvetica,sans-Serif" font-size="14.00" fill="#000000">Elbracht</text>
</g>
<!-- United Newsserver &#45;&#45;Elbracht -->
<g id="edge1" class="edge">
<title>United Newsserver --Elbracht</title>
<path fill="none" stroke="#000000" d="M138.1843,-36.5C167.3976,-36.5 200.0855,-36.5 223.8622,-36.5"/>
</g>
<!-- United Newsserver -->
<g id="node3" class="node">
<title>United Newsserver</title>
<polygon fill="none" stroke="#91c49b" points="511.3732,-72 376.924,-72 376.924,-45 511.3732,-45 511.3732,-72"/>
<text text-anchor="middle" x="444.1486" y="-54.3" font-family="Helvetica,sans-Serif" font-size="14.00" fill="#000000">United Newsserver</text>
</g>
<!-- Elbracht&#45;&#45;United Newsserver -->
<g id="edge2" class="edge">
<title>Elbracht--United Newsserver</title>
<path fill="none" stroke="#000000" d="M291.3626,-40.484C315.1999,-43.2948 347.933,-47.1546 376.9882,-50.5807"/>
</g>
<!-- Premium News  -->
<g id="node4" class="node">
<title>Premium News </title>
<polygon fill="none" stroke="#91c49b" points="501.416,-27 386.8812,-27 386.8812,0 501.416,0 501.416,-27"/>
<text text-anchor="middle" x="444.1486" y="-9.3" font-family="Helvetica,sans-Serif" font-size="14.00" fill="#000000">Premium News </text>
</g>
<!-- Elbracht&#45;&#45;Premium News  -->
<g id="edge3" class="edge">
<title>Elbracht--Premium News </title>
<path fill="none" stroke="#000000" d="M291.3626,-32.3349C317.9302,-29.0597 355.548,-24.4223 386.8083,-20.5687"/>
</g>
<!-- NewsGuy  -->
<g id="node5" class="node">
<title>NewsGuy </title>
<polygon fill="none" stroke="#444139" points="109.1183,-151 28.9967,-151 28.9967,-124 109.1183,-124 109.1183,-151"/>
<text text-anchor="middle" x="69.0575" y="-133.3" font-family="Helvetica,sans-Serif" font-size="14.00" fill="#000000">NewsGuy </text>
</g>
<!-- NewsGuy / HW Media -->
<g id="node6" class="node">
<title>NewsGuy / HW Media</title>
<polygon fill="none" stroke="#444139" points="334.2437,-151 180.9077,-151 180.9077,-124 334.2437,-124 334.2437,-151"/>
<text text-anchor="middle" x="257.5757" y="-133.3" font-family="Helvetica,sans-Serif" font-size="14.00" fill="#000000">NewsGuy / HW Media</text>
</g>
<!-- NewsGuy &#45;&#45;NewsGuy / HW Media -->
<g id="edge4" class="edge">
<title>NewsGuy --NewsGuy / HW Media</title>
<path fill="none" stroke="#000000" d="M109.4994,-137.5C130.2717,-137.5 156.288,-137.5 180.6942,-137.5"/>
</g>
<!-- NewsGuy -->
<g id="node7" class="node">
<title>NewsGuy</title>
<polygon fill="none" stroke="#444139" points="482.3183,-162 405.9789,-162 405.9789,-135 482.3183,-135 482.3183,-162"/>
<text text-anchor="middle" x="444.1486" y="-144.3" font-family="Helvetica,sans-Serif" font-size="14.00" fill="#000000">NewsGuy</text>
</g>
<!-- NewsGuy / HW Media&#45;&#45;NewsGuy -->
<g id="edge5" class="edge">
<title>NewsGuy / HW Media--NewsGuy</title>
<path fill="none" stroke="#000000" d="M334.2697,-142.0217C358.8938,-143.4735 385.1117,-145.0193 405.7596,-146.2367"/>
</g>
<!-- nntpjunkie.com -->
<g id="node8" class="node">
<title>nntpjunkie.com</title>
<polygon fill="none" stroke="#444139" points="499.2819,-117 389.0153,-117 389.0153,-90 499.2819,-90 499.2819,-117"/>
<text text-anchor="middle" x="444.1486" y="-99.3" font-family="Helvetica,sans-Serif" font-size="14.00" fill="#000000">nntpjunkie.com</text>
</g>
<!-- NewsGuy / HW Media&#45;&#45;nntpjunkie.com -->
<g id="edge6" class="edge">
<title>NewsGuy / HW Media--nntpjunkie.com</title>
<path fill="none" stroke="#000000" d="M331.8503,-123.9646C350.8532,-120.5016 370.9552,-116.8384 388.8186,-113.583"/>
</g>
<!-- Newscene  -->
<g id="node9" class="node">
<title>Newscene </title>
<polygon fill="none" stroke="#ec2efa" points="111.792,-218 26.323,-218 26.323,-191 111.792,-191 111.792,-218"/>
<text text-anchor="middle" x="69.0575" y="-200.3" font-family="Helvetica,sans-Serif" font-size="14.00" fill="#000000">Newscene </text>
</g>
<!-- Novia / HW Media -->
<g id="node10" class="node">
<title>Novia / HW Media</title>
<polygon fill="none" stroke="#ec2efa" points="321.8529,-218 193.2985,-218 193.2985,-191 321.8529,-191 321.8529,-218"/>
<text text-anchor="middle" x="257.5757" y="-200.3" font-family="Helvetica,sans-Serif" font-size="14.00" fill="#000000">Novia / HW Media</text>
</g>
<!-- Newscene &#45;&#45;Novia / HW Media -->
<g id="edge7" class="edge">
<title>Newscene --Novia / HW Media</title>
<path fill="none" stroke="#000000" d="M111.8352,-204.5C135.8434,-204.5 166.2792,-204.5 193.1207,-204.5"/>
</g>
<!-- Newscene -->
<g id="node11" class="node">
<title>Newscene</title>
<polygon fill="none" stroke="#ec2efa" points="484.9929,-218 403.3043,-218 403.3043,-191 484.9929,-191 484.9929,-218"/>
<text text-anchor="middle" x="444.1486" y="-200.3" font-family="Helvetica,sans-Serif" font-size="14.00" fill="#000000">Newscene</text>
</g>
<!-- Novia / HW Media&#45;&#45;Newscene -->
<g id="edge8" class="edge">
<title>Novia / HW Media--Newscene</title>
<path fill="none" stroke="#000000" d="M322.0448,-204.5C349.0088,-204.5 379.5348,-204.5 403.3197,-204.5"/>
</g>
<!-- Premium News -->
<g id="node12" class="node">
<title>Premium News</title>
<polygon fill="none" stroke="#ec2efa" points="681.4313,-218 570.6779,-218 570.6779,-191 681.4313,-191 681.4313,-218"/>
<text text-anchor="middle" x="626.0546" y="-200.3" font-family="Helvetica,sans-Serif" font-size="14.00" fill="#000000">Premium News</text>
</g>
<!-- Newscene&#45;&#45;Premium News -->
<g id="edge9" class="edge">
<title>Newscene--Premium News</title>
<path fill="none" stroke="#000000" d="M484.9719,-204.5C510.2166,-204.5 542.9543,-204.5 570.5377,-204.5"/>
</g>
<!-- Giganews -->
<g id="node13" class="node">
<title>Giganews</title>
<polygon fill="none" stroke="#3f022e" points="108.2921,-286 29.8229,-286 29.8229,-259 108.2921,-259 108.2921,-286"/>
<text text-anchor="middle" x="69.0575" y="-268.3" font-family="Helvetica,sans-Serif" font-size="14.00" fill="#000000">Giganews</text>
</g>
<!-- Giganews  -->
<g id="node14" class="node">
<title>Giganews </title>
<polygon fill="none" stroke="#3f022e" points="298.7006,-286 216.4508,-286 216.4508,-259 298.7006,-259 298.7006,-286"/>
<text text-anchor="middle" x="257.5757" y="-268.3" font-family="Helvetica,sans-Serif" font-size="14.00" fill="#000000">Giganews </text>
</g>
<!-- Giganews&#45;&#45;Giganews  -->
<g id="edge10" class="edge">
<title>Giganews--Giganews </title>
<path fill="none" stroke="#000000" d="M108.5771,-272.5C140.2117,-272.5 184.4348,-272.5 216.4784,-272.5"/>
</g>
<!-- Giganews &#160; -->
<g id="node15" class="node">
<title>Giganews  </title>
<polygon fill="none" stroke="#3f022e" points="487.164,-308 401.1332,-308 401.1332,-281 487.164,-281 487.164,-308"/>
<text text-anchor="middle" x="444.1486" y="-290.3" font-family="Helvetica,sans-Serif" font-size="14.00" fill="#000000">Giganews  </text>
</g>
<!-- Giganews &#45;&#45;Giganews &#160; -->
<g id="edge11" class="edge">
<title>Giganews --Giganews  </title>
<path fill="none" stroke="#000000" d="M298.9823,-277.3825C329.2565,-280.9523 370.2194,-285.7825 400.9128,-289.4018"/>
</g>
<!-- Supernews -->
<g id="node16" class="node">
<title>Supernews</title>
<polygon fill="none" stroke="#3f022e" points="487.1654,-263 401.1318,-263 401.1318,-236 487.1654,-236 487.1654,-263"/>
<text text-anchor="middle" x="444.1486" y="-245.3" font-family="Helvetica,sans-Serif" font-size="14.00" fill="#000000">Supernews</text>
</g>
<!-- Giganews &#45;&#45;Supernews -->
<g id="edge12" class="edge">
<title>Giganews --Supernews</title>
<path fill="none" stroke="#000000" d="M298.9823,-267.3956C329.2565,-263.6635 370.2194,-258.6137 400.9128,-254.8299"/>
</g>
<!-- PowerUsenet\nRhinoNewsgroups\nUsenet.net -->
<g id="node17" class="node">
<title>PowerUsenet\nRhinoNewsgroups\nUsenet.net</title>
<polygon fill="none" stroke="#3f022e" points="691.4029,-323.9014 560.7063,-323.9014 560.7063,-265.0986 691.4029,-265.0986 691.4029,-323.9014"/>
<text text-anchor="middle" x="626.0546" y="-307.1" font-family="Helvetica,sans-Serif" font-size="14.00" fill="#000000">PowerUsenet</text>
<text text-anchor="middle" x="626.0546" y="-290.3" font-family="Helvetica,sans-Serif" font-size="14.00" fill="#000000">RhinoNewsgroups</text>
<text text-anchor="middle" x="626.0546" y="-273.5" font-family="Helvetica,sans-Serif" font-size="14.00" fill="#000000">Usenet.net</text>
</g>
<!-- Giganews &#160;&#45;&#45;PowerUsenet\nRhinoNewsgroups\nUsenet.net -->
<g id="edge13" class="edge">
<title>Giganews  --PowerUsenet\nRhinoNewsgroups\nUsenet.net</title>
<path fill="none" stroke="#000000" d="M487.2578,-294.5C509.2159,-294.5 536.3749,-294.5 560.83,-294.5"/>
</g>
<!-- Usenet.Farm  -->
<g id="node18" class="node">
<title>Usenet.Farm </title>
<polygon fill="none" stroke="#368a8b" points="119.3403,-388 18.7747,-388 18.7747,-361 119.3403,-361 119.3403,-388"/>
<text text-anchor="middle" x="69.0575" y="-370.3" font-family="Helvetica,sans-Serif" font-size="14.00" fill="#000000">Usenet.Farm </text>
</g>
<!-- Its Hosted -->
<g id="node19" class="node">
<title>Its Hosted</title>
<polygon fill="none" stroke="#368a8b" points="297.0925,-414.0168 218.0589,-414.0168 218.0589,-334.9832 297.0925,-334.9832 297.0925,-414.0168"/>
<polyline fill="none" stroke="#368a8b" points="230.0589,-414.0168 218.0589,-402.0168 "/>
<polyline fill="none" stroke="#368a8b" points="218.0589,-346.9832 230.0589,-334.9832 "/>
<polyline fill="none" stroke="#368a8b" points="285.0925,-334.9832 297.0925,-346.9832 "/>
<polyline fill="none" stroke="#368a8b" points="297.0925,-402.0168 285.0925,-414.0168 "/>
<text text-anchor="middle" x="257.5757" y="-370.3" font-family="Helvetica,sans-Serif" font-size="14.00" fill="#ffa500">Its Hosted</text>
</g>
<!-- Usenet.Farm &#45;&#45;Its Hosted -->
<g id="edge14" class="edge">
<title>Usenet.Farm --Its Hosted</title>
<path fill="none" stroke="#000000" d="M119.5769,-374.5C150.4424,-374.5 189.3478,-374.5 217.9753,-374.5"/>
</g>
<!-- Usenet.Farm -->
<g id="node20" class="node">
<title>Usenet.Farm</title>
<polygon fill="none" stroke="#368a8b" points="492.5407,-422.8921 395.7565,-422.8921 395.7565,-326.1079 492.5407,-326.1079 492.5407,-422.8921"/>
<polyline fill="none" stroke="#368a8b" points="407.7565,-422.8921 395.7565,-410.8921 "/>
<polyline fill="none" stroke="#368a8b" points="395.7565,-338.1079 407.7565,-326.1079 "/>
<polyline fill="none" stroke="#368a8b" points="480.5407,-326.1079 492.5407,-338.1079 "/>
<polyline fill="none" stroke="#368a8b" points="492.5407,-410.8921 480.5407,-422.8921 "/>
<text text-anchor="middle" x="444.1486" y="-370.3" font-family="Helvetica,sans-Serif" font-size="14.00" fill="#ffa500">Usenet.Farm</text>
</g>
<!-- Its Hosted&#45;&#45;Usenet.Farm -->
<g id="edge15" class="edge">
<title>Its Hosted--Usenet.Farm</title>
<path fill="none" stroke="#000000" d="M297.143,-374.5C325.917,-374.5 365.0345,-374.5 395.6842,-374.5"/>
</g>
<!-- UsenetNews\nFrugalUsenet -->
<g id="node21" class="node">
<title>UsenetNews\nFrugalUsenet</title>
<polygon fill="none" stroke="#368a8b" points="676.0672,-395.1019 576.042,-395.1019 576.042,-353.8981 676.0672,-353.8981 676.0672,-395.1019"/>
<text text-anchor="middle" x="626.0546" y="-378.7" font-family="Helvetica,sans-Serif" font-size="14.00" fill="#000000">UsenetNews</text>
<text text-anchor="middle" x="626.0546" y="-361.9" font-family="Helvetica,sans-Serif" font-size="14.00" fill="#000000">FrugalUsenet</text>
</g>
<!-- Usenet.Farm&#45;&#45;UsenetNews\nFrugalUsenet -->
<g id="edge16" class="edge">
<title>Usenet.Farm--UsenetNews\nFrugalUsenet</title>
<path fill="none" stroke="#000000" d="M492.8961,-374.5C518.5746,-374.5 550.0201,-374.5 575.9041,-374.5"/>
</g>
<!-- Uzo Reto -->
<g id="node22" class="node">
<title>Uzo Reto</title>
<polygon fill="none" stroke="#c16ffa" points="106.4005,-498 31.7145,-498 31.7145,-471 106.4005,-471 106.4005,-498"/>
<text text-anchor="middle" x="69.0575" y="-480.3" font-family="Helvetica,sans-Serif" font-size="14.00" fill="#000000">Uzo Reto</text>
</g>
<!-- ViperNews -->
<g id="node23" class="node">
<title>ViperNews</title>
<polygon fill="none" stroke="#c16ffa" points="299.2412,-526.1655 215.9102,-526.1655 215.9102,-442.8345 299.2412,-442.8345 299.2412,-526.1655"/>
<polyline fill="none" stroke="#c16ffa" points="227.9102,-526.1655 215.9102,-514.1655 "/>
<polyline fill="none" stroke="#c16ffa" points="215.9102,-454.8345 227.9102,-442.8345 "/>
<polyline fill="none" stroke="#c16ffa" points="287.2412,-442.8345 299.2412,-454.8345 "/>
<polyline fill="none" stroke="#c16ffa" points="299.2412,-514.1655 287.2412,-526.1655 "/>
<text text-anchor="middle" x="257.5757" y="-480.3" font-family="Helvetica,sans-Serif" font-size="14.00" fill="#ffa500">ViperNews</text>
</g>
<!-- Uzo Reto&#45;&#45;ViperNews -->
<g id="edge17" class="edge">
<title>Uzo Reto--ViperNews</title>
<path fill="none" stroke="#000000" d="M106.3026,-484.5C137.8502,-484.5 183.0462,-484.5 215.8142,-484.5"/>
</g>
<!-- ViperNews  -->
<g id="node24" class="node">
<title>ViperNews </title>
<polygon fill="none" stroke="#c16ffa" points="487.7051,-528.0565 400.5921,-528.0565 400.5921,-440.9435 487.7051,-440.9435 487.7051,-528.0565"/>
<polyline fill="none" stroke="#c16ffa" points="412.5921,-528.0565 400.5921,-516.0565 "/>
<polyline fill="none" stroke="#c16ffa" points="400.5921,-452.9435 412.5921,-440.9435 "/>
<polyline fill="none" stroke="#c16ffa" points="475.7051,-440.9435 487.7051,-452.9435 "/>
<polyline fill="none" stroke="#c16ffa" points="487.7051,-516.0565 475.7051,-528.0565 "/>
<text text-anchor="middle" x="444.1486" y="-480.3" font-family="Helvetica,sans-Serif" font-size="14.00" fill="#ffa500">ViperNews </text>
</g>
<!-- ViperNews&#45;&#45;ViperNews  -->
<g id="edge18" class="edge">
<title>ViperNews--ViperNews </title>
<path fill="none" stroke="#000000" d="M299.4463,-484.5C329.5287,-484.5 369.985,-484.5 400.4718,-484.5"/>
</g>
<!--  UsenetNews\nNovaUsenet -->
<g id="node25" class="node">
<title> UsenetNews\nNovaUsenet</title>
<polygon fill="none" stroke="#c16ffa" points="675.7863,-505.1019 576.3229,-505.1019 576.3229,-463.8981 675.7863,-463.8981 675.7863,-505.1019"/>
<text text-anchor="middle" x="626.0546" y="-488.7" font-family="Helvetica,sans-Serif" font-size="14.00" fill="#000000"> UsenetNews</text>
<text text-anchor="middle" x="626.0546" y="-471.9" font-family="Helvetica,sans-Serif" font-size="14.00" fill="#000000">NovaUsenet</text>
</g>
<!-- ViperNews &#45;&#45; UsenetNews\nNovaUsenet -->
<g id="edge19" class="edge">
<title>ViperNews -- UsenetNews\nNovaUsenet</title>
<path fill="none" stroke="#000000" d="M487.7196,-484.5C514.417,-484.5 548.6711,-484.5 576.4137,-484.5"/>
</g>
<!-- UsenetExpress -->
<g id="node26" class="node">
<title>UsenetExpress</title>
<polygon fill="none" stroke="#2a7325" points="124.4649,-595 13.6501,-595 13.6501,-568 124.4649,-568 124.4649,-595"/>
<text text-anchor="middle" x="69.0575" y="-577.3" font-family="Helvetica,sans-Serif" font-size="14.00" fill="#000000">UsenetExpress</text>
</g>
<!-- UsenetExpress  -->
<g id="node27" class="node">
<title>UsenetExpress </title>
<polygon fill="none" stroke="#2a7325" points="314.8739,-618 200.2775,-618 200.2775,-591 314.8739,-591 314.8739,-618"/>
<text text-anchor="middle" x="257.5757" y="-600.3" font-family="Helvetica,sans-Serif" font-size="14.00" fill="#000000">UsenetExpress </text>
</g>
<!-- UsenetExpress&#45;&#45;UsenetExpress  -->
<g id="edge20" class="edge">
<title>UsenetExpress--UsenetExpress </title>
<path fill="none" stroke="#000000" d="M124.5995,-588.2764C148.3851,-591.1783 176.1517,-594.5659 200.142,-597.4929"/>
</g>
<!-- NewsGroupDirect -->
<g id="node32" class="node">
<title>NewsGroupDirect</title>
<polygon fill="none" stroke="#2a7325" points="321.0183,-573 194.1331,-573 194.1331,-546 321.0183,-546 321.0183,-573"/>
<text text-anchor="middle" x="257.5757" y="-555.3" font-family="Helvetica,sans-Serif" font-size="14.00" fill="#000000">NewsGroupDirect</text>
</g>
<!-- UsenetExpress&#45;&#45;NewsGroupDirect -->
<g id="edge25" class="edge">
<title>UsenetExpress--NewsGroupDirect</title>
<path fill="none" stroke="#000000" d="M124.5995,-575.0183C146.4301,-572.4706 171.6142,-569.5317 194.1544,-566.9012"/>
</g>
<!-- UsenetExpress &#160; -->
<g id="node28" class="node">
<title>UsenetExpress  </title>
<polygon fill="none" stroke="#2a7325" points="503.3376,-663 384.9596,-663 384.9596,-636 503.3376,-636 503.3376,-663"/>
<text text-anchor="middle" x="444.1486" y="-645.3" font-family="Helvetica,sans-Serif" font-size="14.00" fill="#000000">UsenetExpress  </text>
</g>
<!-- UsenetExpress &#45;&#45;UsenetExpress &#160; -->
<g id="edge21" class="edge">
<title>UsenetExpress --UsenetExpress  </title>
<path fill="none" stroke="#000000" d="M313.5537,-618.0015C337.0604,-623.6711 364.351,-630.2534 387.8879,-635.9303"/>
</g>
<!-- NewsDemon -->
<g id="node30" class="node">
<title>NewsDemon</title>
<polygon fill="none" stroke="#2a7325" points="492.2595,-618 396.0377,-618 396.0377,-591 492.2595,-591 492.2595,-618"/>
<text text-anchor="middle" x="444.1486" y="-600.3" font-family="Helvetica,sans-Serif" font-size="14.00" fill="#000000">NewsDemon</text>
</g>
<!-- UsenetExpress &#45;&#45;NewsDemon -->
<g id="edge23" class="edge">
<title>UsenetExpress --NewsDemon</title>
<path fill="none" stroke="#000000" d="M315.0761,-604.5C340.9869,-604.5 371.2392,-604.5 395.9404,-604.5"/>
</g>
<!-- NewsGroupDirect  -->
<g id="node31" class="node">
<title>NewsGroupDirect </title>
<polygon fill="none" stroke="#2a7325" points="509.4814,-573 378.8158,-573 378.8158,-546 509.4814,-546 509.4814,-573"/>
<text text-anchor="middle" x="444.1486" y="-555.3" font-family="Helvetica,sans-Serif" font-size="14.00" fill="#000000">NewsGroupDirect </text>
</g>
<!-- UsenetExpress &#45;&#45;NewsGroupDirect  -->
<g id="edge24" class="edge">
<title>UsenetExpress --NewsGroupDirect </title>
<path fill="none" stroke="#000000" d="M313.5537,-590.9985C337.0604,-585.3289 364.351,-578.7466 387.8879,-573.0697"/>
</g>
<!-- UsenetNews\nUsenetPrime\n UsenetFire\nThunderNews\n theCubeNet -->
<g id="node29" class="node">
<title>UsenetNews\nUsenetPrime\n UsenetFire\nThunderNews\n theCubeNet</title>
<polygon fill="none" stroke="#2a7325" points="677.6767,-695.5 574.4325,-695.5 574.4325,-603.5 677.6767,-603.5 677.6767,-695.5"/>
<text text-anchor="middle" x="626.0546" y="-678.9" font-family="Helvetica,sans-Serif" font-size="14.00" fill="#000000">UsenetNews</text>
<text text-anchor="middle" x="626.0546" y="-662.1" font-family="Helvetica,sans-Serif" font-size="14.00" fill="#000000">UsenetPrime</text>
<text text-anchor="middle" x="626.0546" y="-645.3" font-family="Helvetica,sans-Serif" font-size="14.00" fill="#000000"> UsenetFire</text>
<text text-anchor="middle" x="626.0546" y="-628.5" font-family="Helvetica,sans-Serif" font-size="14.00" fill="#000000">ThunderNews</text>
<text text-anchor="middle" x="626.0546" y="-611.7" font-family="Helvetica,sans-Serif" font-size="14.00" fill="#000000"> theCubeNet</text>
</g>
<!-- UsenetExpress &#160;&#45;&#45;UsenetNews\nUsenetPrime\n UsenetFire\nThunderNews\n theCubeNet -->
<g id="edge22" class="edge">
<title>UsenetExpress  --UsenetNews\nUsenetPrime\n UsenetFire\nThunderNews\n theCubeNet</title>
<path fill="none" stroke="#000000" d="M503.4597,-649.5C526.3728,-649.5 552.3466,-649.5 574.4697,-649.5"/>
</g>
<!-- NewsGroupDirect&#45;&#45;NewsGroupDirect  -->
<g id="edge26" class="edge">
<title>NewsGroupDirect--NewsGroupDirect </title>
<path fill="none" stroke="#000000" d="M321.0011,-559.5C339.5938,-559.5 359.9556,-559.5 378.6733,-559.5"/>
</g>
<!-- Abavia -->
<g id="node33" class="node">
<title>Abavia</title>
<polygon fill="none" stroke="#0000ff" points="98.3489,-1009 39.7661,-1009 39.7661,-982 98.3489,-982 98.3489,-1009"/>
<text text-anchor="middle" x="69.0575" y="-991.3" font-family="Helvetica,sans-Serif" font-size="14.00" fill="#000000">Abavia</text>
</g>
<!-- Abavia  -->
<g id="node34" class="node">
<title>Abavia </title>
<polygon fill="none" stroke="#0000ff" points="288.7581,-1009 226.3933,-1009 226.3933,-982 288.7581,-982 288.7581,-1009"/>
<text text-anchor="middle" x="257.5757" y="-991.3" font-family="Helvetica,sans-Serif" font-size="14.00" fill="#000000">Abavia </text>
</g>
<!-- Abavia&#45;&#45;Abavia  -->
<g id="edge27" class="edge">
<title>Abavia--Abavia </title>
<path fill="none" stroke="#000000" d="M98.5135,-995.5C133.2048,-995.5 190.5945,-995.5 226.1281,-995.5"/>
</g>
<!-- Cheapnews -->
<g id="node35" class="node">
<title>Cheapnews</title>
<polygon fill="none" stroke="#0000ff" points="489.0574,-1144 399.2398,-1144 399.2398,-1117 489.0574,-1117 489.0574,-1144"/>
<text text-anchor="middle" x="444.1486" y="-1126.3" font-family="Helvetica,sans-Serif" font-size="14.00" fill="#000000">Cheapnews</text>
</g>
<!-- Abavia &#45;&#45;Cheapnews -->
<g id="edge28" class="edge">
<title>Abavia --Cheapnews</title>
<path fill="none" stroke="#000000" d="M268.6905,-1009.1762C288.2813,-1032.4588 331.2404,-1079.9444 377.0364,-1107.5 383.7906,-1111.5641 391.3623,-1115.0336 398.9205,-1117.9518"/>
</g>
<!-- EasyUsenet -->
<g id="node36" class="node">
<title>EasyUsenet</title>
<polygon fill="none" stroke="#0000ff" points="490.114,-1099 398.1832,-1099 398.1832,-1072 490.114,-1072 490.114,-1099"/>
<text text-anchor="middle" x="444.1486" y="-1081.3" font-family="Helvetica,sans-Serif" font-size="14.00" fill="#000000">EasyUsenet</text>
</g>
<!-- Abavia &#45;&#45;EasyUsenet -->
<g id="edge29" class="edge">
<title>Abavia --EasyUsenet</title>
<path fill="none" stroke="#000000" d="M278.9793,-1009.0697C302.4238,-1023.5572 341.4386,-1046.5752 377.0364,-1062.5 384.5692,-1065.8698 392.756,-1069.0512 400.7385,-1071.9119"/>
</g>
<!-- Usenet.nl -->
<g id="node37" class="node">
<title>Usenet.nl</title>
<polygon fill="none" stroke="#0000ff" points="481.7735,-1054 406.5237,-1054 406.5237,-1027 481.7735,-1027 481.7735,-1054"/>
<text text-anchor="middle" x="444.1486" y="-1036.3" font-family="Helvetica,sans-Serif" font-size="14.00" fill="#000000">Usenet.nl</text>
</g>
<!-- Abavia &#45;&#45;Usenet.nl -->
<g id="edge30" class="edge">
<title>Abavia --Usenet.nl</title>
<path fill="none" stroke="#000000" d="M288.8038,-1003.032C321.1694,-1010.8383 371.7748,-1023.044 406.3717,-1031.3885"/>
</g>
<!-- Usenet.org -->
<g id="node38" class="node">
<title>Usenet.org</title>
<polygon fill="none" stroke="#0000ff" points="486.6113,-1009 401.6859,-1009 401.6859,-982 486.6113,-982 486.6113,-1009"/>
<text text-anchor="middle" x="444.1486" y="-991.3" font-family="Helvetica,sans-Serif" font-size="14.00" fill="#000000">Usenet.org</text>
</g>
<!-- Abavia &#45;&#45;Usenet.org -->
<g id="edge31" class="edge">
<title>Abavia --Usenet.org</title>
<path fill="none" stroke="#000000" d="M288.8038,-995.5C319.7171,-995.5 367.27,-995.5 401.6208,-995.5"/>
</g>
<!-- Usenext -->
<g id="node39" class="node">
<title>Usenext</title>
<polygon fill="none" stroke="#0000ff" points="477.9945,-964 410.3027,-964 410.3027,-937 477.9945,-937 477.9945,-964"/>
<text text-anchor="middle" x="444.1486" y="-946.3" font-family="Helvetica,sans-Serif" font-size="14.00" fill="#000000">Usenext</text>
</g>
<!-- Abavia &#45;&#45;Usenext -->
<g id="edge32" class="edge">
<title>Abavia --Usenext</title>
<path fill="none" stroke="#000000" d="M288.8038,-987.968C322.4142,-979.8614 375.6945,-967.0106 410.2907,-958.6663"/>
</g>
<!-- XS News / Xenna -->
<g id="node40" class="node">
<title>XS News / Xenna</title>
<polygon fill="none" stroke="#0000ff" points="506.8474,-919 381.4498,-919 381.4498,-892 506.8474,-892 506.8474,-919"/>
<text text-anchor="middle" x="444.1486" y="-901.3" font-family="Helvetica,sans-Serif" font-size="14.00" fill="#000000">XS News / Xenna</text>
</g>
<!-- Abavia &#45;&#45;XS News / Xenna -->
<g id="edge33" class="edge">
<title>Abavia --XS News / Xenna</title>
<path fill="none" stroke="#000000" d="M278.4821,-981.8788C301.8163,-967.09 341.0365,-943.4527 377.0364,-927.5 383.8746,-924.4698 391.2644,-921.6345 398.5548,-919.0734"/>
</g>
<!-- XS News -->
<g id="node41" class="node">
<title>XS News</title>
<polygon fill="none" stroke="#0000ff" points="480.7095,-874 407.5877,-874 407.5877,-847 480.7095,-847 480.7095,-874"/>
<text text-anchor="middle" x="444.1486" y="-856.3" font-family="Helvetica,sans-Serif" font-size="14.00" fill="#000000">XS News</text>
</g>
<!-- Abavia &#45;&#45;XS News -->
<g id="edge34" class="edge">
<title>Abavia --XS News</title>
<path fill="none" stroke="#000000" d="M268.6238,-981.6303C288.1139,-958.0323 330.9252,-909.9647 377.0364,-882.5 386.3067,-876.9784 397.1339,-872.6533 407.3523,-869.3546"/>
</g>
<!-- aEton\nBulknews\nDreamload\nGebruikhet\nI&#45;Telligent\nNewsGrabber\nNewsXS\nSMS Usenet\nStingy Usenet\nUsenet.today\nUsenetAgency\nUsenetDiscount\nUsenetDiscounter.com\nUsenet&#45;Server\nUseNight\nXS Usenet\nZ51 -->
<g id="node42" class="node">
<title>aEton\nBulknews\nDreamload\nGebruikhet\nI-Telligent\nNewsGrabber\nNewsXS\nSMS Usenet\nStingy Usenet\nUsenet.today\nUsenetAgency\nUsenetDiscount\nUsenetDiscounter.com\nUsenet-Server\nUseNight\nXS Usenet\nZ51</title>
<polygon fill="none" stroke="#0000ff" points="704.6288,-1007.1003 547.4804,-1007.1003 547.4804,-713.8997 704.6288,-713.8997 704.6288,-1007.1003"/>
<text text-anchor="middle" x="626.0546" y="-990.7" font-family="Helvetica,sans-Serif" font-size="14.00" fill="#000000">aEton</text>
<text text-anchor="middle" x="626.0546" y="-973.9" font-family="Helvetica,sans-Serif" font-size="14.00" fill="#000000">Bulknews</text>
<text text-anchor="middle" x="626.0546" y="-957.1" font-family="Helvetica,sans-Serif" font-size="14.00" fill="#000000">Dreamload</text>
<text text-anchor="middle" x="626.0546" y="-940.3" font-family="Helvetica,sans-Serif" font-size="14.00" fill="#000000">Gebruikhet</text>
<text text-anchor="middle" x="626.0546" y="-923.5" font-family="Helvetica,sans-Serif" font-size="14.00" fill="#000000">I-Telligent</text>
<text text-anchor="middle" x="626.0546" y="-906.7" font-family="Helvetica,sans-Serif" font-size="14.00" fill="#000000">NewsGrabber</text>
<text text-anchor="middle" x="626.0546" y="-889.9" font-family="Helvetica,sans-Serif" font-size="14.00" fill="#000000">NewsXS</text>
<text text-anchor="middle" x="626.0546" y="-873.1" font-family="Helvetica,sans-Serif" font-size="14.00" fill="#000000">SMS Usenet</text>
<text text-anchor="middle" x="626.0546" y="-856.3" font-family="Helvetica,sans-Serif" font-size="14.00" fill="#000000">Stingy Usenet</text>
<text text-anchor="middle" x="626.0546" y="-839.5" font-family="Helvetica,sans-Serif" font-size="14.00" fill="#000000">Usenet.today</text>
<text text-anchor="middle" x="626.0546" y="-822.7" font-family="Helvetica,sans-Serif" font-size="14.00" fill="#000000">UsenetAgency</text>
<text text-anchor="middle" x="626.0546" y="-805.9" font-family="Helvetica,sans-Serif" font-size="14.00" fill="#000000">UsenetDiscount</text>
<text text-anchor="middle" x="626.0546" y="-789.1" font-family="Helvetica,sans-Serif" font-size="14.00" fill="#000000">UsenetDiscounter.com</text>
<text text-anchor="middle" x="626.0546" y="-772.3" font-family="Helvetica,sans-Serif" font-size="14.00" fill="#000000">Usenet-Server</text>
<text text-anchor="middle" x="626.0546" y="-755.5" font-family="Helvetica,sans-Serif" font-size="14.00" fill="#000000">UseNight</text>
<text text-anchor="middle" x="626.0546" y="-738.7" font-family="Helvetica,sans-Serif" font-size="14.00" fill="#000000">XS Usenet</text>
<text text-anchor="middle" x="626.0546" y="-721.9" font-family="Helvetica,sans-Serif" font-size="14.00" fill="#000000">Z51</text>
</g>
<!-- XS News&#45;&#45;aEton\nBulknews\nDreamload\nGebruikhet\nI&#45;Telligent\nNewsGrabber\nNewsXS\nSMS Usenet\nStingy Usenet\nUsenet.today\nUsenetAgency\nUsenetDiscount\nUsenetDiscounter.com\nUsenet&#45;Server\nUseNight\nXS Usenet\nZ51 -->
<g id="edge35" class="edge">
<title>XS News--aEton\nBulknews\nDreamload\nGebruikhet\nI-Telligent\nNewsGrabber\nNewsXS\nSMS Usenet\nStingy Usenet\nUsenet.today\nUsenetAgency\nUsenetDiscount\nUsenetDiscounter.com\nUsenet-Server\nUseNight\nXS Usenet\nZ51</title>
<path fill="none" stroke="#000000" d="M480.96,-860.5C500.062,-860.5 524.1735,-860.5 547.2268,-860.5"/>
</g>
<!-- Omicron -->
<g id="node43" class="node">
<title>Omicron</title>
<polygon fill="none" stroke="#ff0000" points="103.4412,-1530 34.6738,-1530 34.6738,-1503 103.4412,-1503 103.4412,-1530"/>
<text text-anchor="middle" x="69.0575" y="-1512.3" font-family="Helvetica,sans-Serif" font-size="14.00" fill="#000000">Omicron</text>
</g>
<!-- Eweka Internet Services -->
<g id="node44" class="node">
<title>Eweka Internet Services</title>
<polygon fill="none" stroke="#ff0000" points="340.9971,-1628 174.1543,-1628 174.1543,-1601 340.9971,-1601 340.9971,-1628"/>
<text text-anchor="middle" x="257.5757" y="-1610.3" font-family="Helvetica,sans-Serif" font-size="14.00" fill="#000000">Eweka Internet Services</text>
</g>
<!-- Omicron&#45;&#45;Eweka Internet Services -->
<g id="edge36" class="edge">
<title>Omicron--Eweka Internet Services</title>
<path fill="none" stroke="#000000" d="M95.2701,-1530.1265C131.2871,-1548.8497 195.6861,-1582.3271 231.5857,-1600.9893"/>
</g>
<!-- HW Media -->
<g id="node46" class="node">
<title>HW Media</title>
<polygon fill="none" stroke="#ff0000" points="298.4032,-1530 216.7482,-1530 216.7482,-1503 298.4032,-1503 298.4032,-1530"/>
<text text-anchor="middle" x="257.5757" y="-1512.3" font-family="Helvetica,sans-Serif" font-size="14.00" fill="#000000">HW Media</text>
</g>
<!-- Omicron&#45;&#45;HW Media -->
<g id="edge38" class="edge">
<title>Omicron--HW Media</title>
<path fill="none" stroke="#000000" d="M103.6346,-1516.5C135.5235,-1516.5 182.894,-1516.5 216.6555,-1516.5"/>
</g>
<!-- Base IP / HW Media -->
<g id="node53" class="node">
<title>Base IP / HW Media</title>
<polygon fill="none" stroke="#ff0000" points="328.5939,-1326 186.5575,-1326 186.5575,-1299 328.5939,-1299 328.5939,-1326"/>
<text text-anchor="middle" x="257.5757" y="-1308.3" font-family="Helvetica,sans-Serif" font-size="14.00" fill="#000000">Base IP / HW Media</text>
</g>
<!-- Omicron&#45;&#45;Base IP / HW Media -->
<g id="edge45" class="edge">
<title>Omicron--Base IP / HW Media</title>
<path fill="none" stroke="#000000" d="M81.7194,-1502.7982C116.0623,-1465.635 210.6906,-1363.2355 244.9689,-1326.1421"/>
</g>
<!-- Eweka -->
<g id="node45" class="node">
<title>Eweka</title>
<polygon fill="none" stroke="#ff0000" points="473.157,-1696.5084 415.1402,-1696.5084 415.1402,-1638.4916 473.157,-1638.4916 473.157,-1696.5084"/>
<polyline fill="none" stroke="#ff0000" points="427.1402,-1696.5084 415.1402,-1684.5084 "/>
<polyline fill="none" stroke="#ff0000" points="415.1402,-1650.4916 427.1402,-1638.4916 "/>
<polyline fill="none" stroke="#ff0000" points="461.157,-1638.4916 473.157,-1650.4916 "/>
<polyline fill="none" stroke="#ff0000" points="473.157,-1684.5084 461.157,-1696.5084 "/>
<text text-anchor="middle" x="444.1486" y="-1663.3" font-family="Helvetica,sans-Serif" font-size="14.00" fill="#ffa500">Eweka</text>
</g>
<!-- Eweka Internet Services&#45;&#45;Eweka -->
<g id="edge37" class="edge">
<title>Eweka Internet Services--Eweka</title>
<path fill="none" stroke="#000000" d="M305.1387,-1628.0113C339.7947,-1637.8561 385.636,-1650.8782 415.015,-1659.224"/>
</g>
<!-- Astraweb -->
<g id="node47" class="node">
<title>Astraweb</title>
<polygon fill="none" stroke="#ff0000" points="481.4916,-1620 406.8056,-1620 406.8056,-1593 481.4916,-1593 481.4916,-1620"/>
<text text-anchor="middle" x="444.1486" y="-1602.3" font-family="Helvetica,sans-Serif" font-size="14.00" fill="#000000">Astraweb</text>
</g>
<!-- HW Media&#45;&#45;Astraweb -->
<g id="edge39" class="edge">
<title>HW Media--Astraweb</title>
<path fill="none" stroke="#000000" d="M278.9793,-1530.0697C302.4238,-1544.5572 341.4386,-1567.5752 377.0364,-1583.5 386.4805,-1587.7248 396.9526,-1591.6535 406.7612,-1595.0254"/>
</g>
<!-- Easynews -->
<g id="node48" class="node">
<title>Easynews</title>
<polygon fill="none" stroke="#ff0000" points="483.9399,-1575 404.3573,-1575 404.3573,-1548 483.9399,-1548 483.9399,-1575"/>
<text text-anchor="middle" x="444.1486" y="-1557.3" font-family="Helvetica,sans-Serif" font-size="14.00" fill="#000000">Easynews</text>
</g>
<!-- HW Media&#45;&#45;Easynews -->
<g id="edge40" class="edge">
<title>HW Media--Easynews</title>
<path fill="none" stroke="#000000" d="M298.5199,-1526.3754C329.9492,-1533.956 373.0983,-1544.3632 404.2609,-1551.8794"/>
</g>
<!-- Newsgroup Ninja -->
<g id="node49" class="node">
<title>Newsgroup Ninja</title>
<polygon fill="none" stroke="#ff0000" points="505.2118,-1530 383.0854,-1530 383.0854,-1503 505.2118,-1503 505.2118,-1530"/>
<text text-anchor="middle" x="444.1486" y="-1512.3" font-family="Helvetica,sans-Serif" font-size="14.00" fill="#000000">Newsgroup Ninja</text>
</g>
<!-- HW Media&#45;&#45;Newsgroup Ninja -->
<g id="edge41" class="edge">
<title>HW Media--Newsgroup Ninja</title>
<path fill="none" stroke="#000000" d="M298.5199,-1516.5C323.1914,-1516.5 355.0846,-1516.5 382.7326,-1516.5"/>
</g>
<!-- NewsHosting -->
<g id="node50" class="node">
<title>NewsHosting</title>
<polygon fill="none" stroke="#ff0000" points="493.597,-1485 394.7002,-1485 394.7002,-1458 493.597,-1458 493.597,-1485"/>
<text text-anchor="middle" x="444.1486" y="-1467.3" font-family="Helvetica,sans-Serif" font-size="14.00" fill="#000000">NewsHosting</text>
</g>
<!-- HW Media&#45;&#45;NewsHosting -->
<g id="edge42" class="edge">
<title>HW Media--NewsHosting</title>
<path fill="none" stroke="#000000" d="M298.5199,-1506.6246C326.8384,-1499.7943 364.6717,-1490.6692 394.6785,-1483.4318"/>
</g>
<!-- UsenetServer -->
<g id="node51" class="node">
<title>UsenetServer</title>
<polygon fill="none" stroke="#ff0000" points="494.7175,-1440 393.5797,-1440 393.5797,-1413 494.7175,-1413 494.7175,-1440"/>
<text text-anchor="middle" x="444.1486" y="-1422.3" font-family="Helvetica,sans-Serif" font-size="14.00" fill="#000000">UsenetServer</text>
</g>
<!-- HW Media&#45;&#45;UsenetServer -->
<g id="edge43" class="edge">
<title>HW Media--UsenetServer</title>
<path fill="none" stroke="#000000" d="M278.4821,-1502.8788C301.8163,-1488.09 341.0365,-1464.4527 377.0364,-1448.5 383.8746,-1445.4698 391.2644,-1442.6345 398.5548,-1440.0734"/>
</g>
<!-- Alibis\nAnonyNews\nAtlantisNews\nBinary Boy\nBinTube\nBlockNews\nBudgetNews\nFast&#45;Usenet\nFirstload\nForte Agent\nFrugal Usenet\nHitNews\niLoad\nMaximumUsenet\nNewsFusion\nNewsGroup&#45;Binaries\nNewsGroupDownload\nNewsLeecher\nNgroups\nPrepaid&#45;Usenet\nShemes\nSimonNews\nSnelNL\nUncensored Newsfeed\nUsenet&#45;News\nUsenet.nl\nUsenet.se\nUsenet4u\nUsenetAccess\nUseNetNow\nUsenetStorm\nUsenext\nXenNews -->
<g id="node52" class="node">
<title>Alibis\nAnonyNews\nAtlantisNews\nBinary Boy\nBinTube\nBlockNews\nBudgetNews\nFast-Usenet\nFirstload\nForte Agent\nFrugal Usenet\nHitNews\niLoad\nMaximumUsenet\nNewsFusion\nNewsGroup-Binaries\nNewsGroupDownload\nNewsLeecher\nNgroups\nPrepaid-Usenet\nShemes\nSimonNews\nSnelNL\nUncensored Newsfeed\nUsenet-News\nUsenet.nl\nUsenet.se\nUsenet4u\nUsenetAccess\nUseNetNow\nUsenetStorm\nUsenext\nXenNews</title>
<polygon fill="none" stroke="#ff0000" points="704.6427,-1764.9001 547.4665,-1764.9001 547.4665,-1202.0999 704.6427,-1202.0999 704.6427,-1764.9001"/>
<text text-anchor="middle" x="626.0546" y="-1748.1" font-family="Helvetica,sans-Serif" font-size="14.00" fill="#000000">Alibis</text>
<text text-anchor="middle" x="626.0546" y="-1731.3" font-family="Helvetica,sans-Serif" font-size="14.00" fill="#000000">AnonyNews</text>
<text text-anchor="middle" x="626.0546" y="-1714.5" font-family="Helvetica,sans-Serif" font-size="14.00" fill="#000000">AtlantisNews</text>
<text text-anchor="middle" x="626.0546" y="-1697.7" font-family="Helvetica,sans-Serif" font-size="14.00" fill="#000000">Binary Boy</text>
<text text-anchor="middle" x="626.0546" y="-1680.9" font-family="Helvetica,sans-Serif" font-size="14.00" fill="#000000">BinTube</text>
<text text-anchor="middle" x="626.0546" y="-1664.1" font-family="Helvetica,sans-Serif" font-size="14.00" fill="#000000">BlockNews</text>
<text text-anchor="middle" x="626.0546" y="-1647.3" font-family="Helvetica,sans-Serif" font-size="14.00" fill="#000000">BudgetNews</text>
<text text-anchor="middle" x="626.0546" y="-1630.5" font-family="Helvetica,sans-Serif" font-size="14.00" fill="#000000">Fast-Usenet</text>
<text text-anchor="middle" x="626.0546" y="-1613.7" font-family="Helvetica,sans-Serif" font-size="14.00" fill="#000000">Firstload</text>
<text text-anchor="middle" x="626.0546" y="-1596.9" font-family="Helvetica,sans-Serif" font-size="14.00" fill="#000000">Forte Agent</text>
<text text-anchor="middle" x="626.0546" y="-1580.1" font-family="Helvetica,sans-Serif" font-size="14.00" fill="#000000">Frugal Usenet</text>
<text text-anchor="middle" x="626.0546" y="-1563.3" font-family="Helvetica,sans-Serif" font-size="14.00" fill="#000000">HitNews</text>
<text text-anchor="middle" x="626.0546" y="-1546.5" font-family="Helvetica,sans-Serif" font-size="14.00" fill="#000000">iLoad</text>
<text text-anchor="middle" x="626.0546" y="-1529.7" font-family="Helvetica,sans-Serif" font-size="14.00" fill="#000000">MaximumUsenet</text>
<text text-anchor="middle" x="626.0546" y="-1512.9" font-family="Helvetica,sans-Serif" font-size="14.00" fill="#000000">NewsFusion</text>
<text text-anchor="middle" x="626.0546" y="-1496.1" font-family="Helvetica,sans-Serif" font-size="14.00" fill="#000000">NewsGroup-Binaries</text>
<text text-anchor="middle" x="626.0546" y="-1479.3" font-family="Helvetica,sans-Serif" font-size="14.00" fill="#000000">NewsGroupDownload</text>
<text text-anchor="middle" x="626.0546" y="-1462.5" font-family="Helvetica,sans-Serif" font-size="14.00" fill="#000000">NewsLeecher</text>
<text text-anchor="middle" x="626.0546" y="-1445.7" font-family="Helvetica,sans-Serif" font-size="14.00" fill="#000000">Ngroups</text>
<text text-anchor="middle" x="626.0546" y="-1428.9" font-family="Helvetica,sans-Serif" font-size="14.00" fill="#000000">Prepaid-Usenet</text>
<text text-anchor="middle" x="626.0546" y="-1412.1" font-family="Helvetica,sans-Serif" font-size="14.00" fill="#000000">Shemes</text>
<text text-anchor="middle" x="626.0546" y="-1395.3" font-family="Helvetica,sans-Serif" font-size="14.00" fill="#000000">SimonNews</text>
<text text-anchor="middle" x="626.0546" y="-1378.5" font-family="Helvetica,sans-Serif" font-size="14.00" fill="#000000">SnelNL</text>
<text text-anchor="middle" x="626.0546" y="-1361.7" font-family="Helvetica,sans-Serif" font-size="14.00" fill="#000000">Uncensored Newsfeed</text>
<text text-anchor="middle" x="626.0546" y="-1344.9" font-family="Helvetica,sans-Serif" font-size="14.00" fill="#000000">Usenet-News</text>
<text text-anchor="middle" x="626.0546" y="-1328.1" font-family="Helvetica,sans-Serif" font-size="14.00" fill="#000000">Usenet.nl</text>
<text text-anchor="middle" x="626.0546" y="-1311.3" font-family="Helvetica,sans-Serif" font-size="14.00" fill="#000000">Usenet.se</text>
<text text-anchor="middle" x="626.0546" y="-1294.5" font-family="Helvetica,sans-Serif" font-size="14.00" fill="#000000">Usenet4u</text>
<text text-anchor="middle" x="626.0546" y="-1277.7" font-family="Helvetica,sans-Serif" font-size="14.00" fill="#000000">UsenetAccess</text>
<text text-anchor="middle" x="626.0546" y="-1260.9" font-family="Helvetica,sans-Serif" font-size="14.00" fill="#000000">UseNetNow</text>
<text text-anchor="middle" x="626.0546" y="-1244.1" font-family="Helvetica,sans-Serif" font-size="14.00" fill="#000000">UsenetStorm</text>
<text text-anchor="middle" x="626.0546" y="-1227.3" font-family="Helvetica,sans-Serif" font-size="14.00" fill="#000000">Usenext</text>
<text text-anchor="middle" x="626.0546" y="-1210.5" font-family="Helvetica,sans-Serif" font-size="14.00" fill="#000000">XenNews</text>
</g>
<!-- NewsHosting&#45;&#45;Alibis\nAnonyNews\nAtlantisNews\nBinary Boy\nBinTube\nBlockNews\nBudgetNews\nFast&#45;Usenet\nFirstload\nForte Agent\nFrugal Usenet\nHitNews\niLoad\nMaximumUsenet\nNewsFusion\nNewsGroup&#45;Binaries\nNewsGroupDownload\nNewsLeecher\nNgroups\nPrepaid&#45;Usenet\nShemes\nSimonNews\nSnelNL\nUncensored Newsfeed\nUsenet&#45;News\nUsenet.nl\nUsenet.se\nUsenet4u\nUsenetAccess\nUseNetNow\nUsenetStorm\nUsenext\nXenNews -->
<g id="edge44" class="edge">
<title>NewsHosting--Alibis\nAnonyNews\nAtlantisNews\nBinary Boy\nBinTube\nBlockNews\nBudgetNews\nFast-Usenet\nFirstload\nForte Agent\nFrugal Usenet\nHitNews\niLoad\nMaximumUsenet\nNewsFusion\nNewsGroup-Binaries\nNewsGroupDownload\nNewsLeecher\nNgroups\nPrepaid-Usenet\nShemes\nSimonNews\nSnelNL\nUncensored Newsfeed\nUsenet-News\nUsenet.nl\nUsenet.se\nUsenet4u\nUsenetAccess\nUseNetNow\nUsenetStorm\nUsenext\nXenNews</title>
<path fill="none" stroke="#000000" d="M493.375,-1474.7474C509.9996,-1475.8441 528.9988,-1477.0974 547.3239,-1478.3063"/>
</g>
<!-- TweakNews -->
<g id="node54" class="node">
<title>TweakNews</title>
<polygon fill="none" stroke="#ff0000" points="490.3691,-1371 397.9281,-1371 397.9281,-1344 490.3691,-1344 490.3691,-1371"/>
<text text-anchor="middle" x="444.1486" y="-1353.3" font-family="Helvetica,sans-Serif" font-size="14.00" fill="#000000">TweakNews</text>
</g>
<!-- Base IP / HW Media&#45;&#45;TweakNews -->
<g id="edge46" class="edge">
<title>Base IP / HW Media--TweakNews</title>
<path fill="none" stroke="#000000" d="M313.5537,-1326.0015C340.4951,-1332.4996 372.4072,-1340.1965 397.9415,-1346.3552"/>
</g>
<!-- PureUsenet -->
<g id="node55" class="node">
<title>PureUsenet</title>
<polygon fill="none" stroke="#ff0000" points="489.056,-1326 399.2412,-1326 399.2412,-1299 489.056,-1299 489.056,-1326"/>
<text text-anchor="middle" x="444.1486" y="-1308.3" font-family="Helvetica,sans-Serif" font-size="14.00" fill="#000000">PureUsenet</text>
</g>
<!-- Base IP / HW Media&#45;&#45;PureUsenet -->
<g id="edge47" class="edge">
<title>Base IP / HW Media--PureUsenet</title>
<path fill="none" stroke="#000000" d="M328.6431,-1312.5C352.3284,-1312.5 378.0426,-1312.5 399.1833,-1312.5"/>
</g>
<!-- SunnyUsenet -->
<g id="node56" class="node">
<title>SunnyUsenet</title>
<polygon fill="none" stroke="#ff0000" points="494.178,-1281 394.1192,-1281 394.1192,-1254 494.178,-1254 494.178,-1281"/>
<text text-anchor="middle" x="444.1486" y="-1263.3" font-family="Helvetica,sans-Serif" font-size="14.00" fill="#000000">SunnyUsenet</text>
</g>
<!-- Base IP / HW Media&#45;&#45;SunnyUsenet -->
<g id="edge48" class="edge">
<title>Base IP / HW Media--SunnyUsenet</title>
<path fill="none" stroke="#000000" d="M313.5537,-1298.9985C339.0998,-1292.837 369.1149,-1285.5976 393.9242,-1279.6137"/>
</g>
<!-- XLned -->
<g id="node57" class="node">
<title>XLned</title>
<polygon fill="none" stroke="#ff0000" points="472.6175,-1189 415.6797,-1189 415.6797,-1162 472.6175,-1162 472.6175,-1189"/>
<text text-anchor="middle" x="444.1486" y="-1171.3" font-family="Helvetica,sans-Serif" font-size="14.00" fill="#000000">XLned</text>
</g>
<!-- Base IP / HW Media&#45;&#45;XLned -->
<g id="edge49" class="edge">
<title>Base IP / HW Media--XLned</title>
<path fill="none" stroke="#000000" d="M276.1471,-1298.8631C311.9094,-1272.6029 389.9493,-1215.2984 425.6523,-1189.0818"/>
</g>
<!-- ExtremeUsenet\nUsenetBucket -->
<g id="node58" class="node">
<title>ExtremeUsenet\nUsenetBucket</title>
<polygon fill="none" stroke="#ff0000" points="682.5141,-1184.1019 569.5951,-1184.1019 569.5951,-1142.8981 682.5141,-1142.8981 682.5141,-1184.1019"/>
<text text-anchor="middle" x="626.0546" y="-1167.7" font-family="Helvetica,sans-Serif" font-size="14.00" fill="#000000">ExtremeUsenet</text>
<text text-anchor="middle" x="626.0546" y="-1150.9" font-family="Helvetica,sans-Serif" font-size="14.00" fill="#000000">UsenetBucket</text>
</g>
<!-- XLned&#45;&#45;ExtremeUsenet\nUsenetBucket -->
<g id="edge50" class="edge">
<title>XLned--ExtremeUsenet\nUsenetBucket</title>
<path fill="none" stroke="#000000" d="M472.5714,-1173.625C498.4517,-1171.9177 537.4238,-1169.3468 569.6199,-1167.2229"/>
</g>
<!-- Company -->
<g id="node59" class="node">
<title>Company</title>
<polygon fill="none" stroke="#000000" stroke-dasharray="5,2" points="106.9552,-1810 31.1598,-1810 31.1598,-1783 106.9552,-1783 106.9552,-1810"/>
<text text-anchor="middle" x="69.0575" y="-1792.3" font-family="Helvetica,sans-Serif" font-size="14.00" fill="#000000">Company</text>
</g>
<!-- Backbone -->
<g id="node60" class="node">
<title>Backbone</title>
<polygon fill="none" stroke="#000000" stroke-dasharray="5,2" points="296.8257,-1810 218.3257,-1810 218.3257,-1783 296.8257,-1783 296.8257,-1810"/>
<text text-anchor="middle" x="257.5757" y="-1792.3" font-family="Helvetica,sans-Serif" font-size="14.00" fill="#000000">Backbone</text>
</g>
<!-- Company&#45;&#45;Backbone -->
<g id="edge51" class="edge">
<title>Company--Backbone</title>
<path fill="none" stroke="#000000" d="M107.207,-1796.5C139.4837,-1796.5 185.5611,-1796.5 218.1852,-1796.5"/>
</g>
<!-- Provider -->
<g id="node61" class="node">
<title>Provider</title>
<polygon fill="none" stroke="#000000" stroke-dasharray="5,2" points="478.2609,-1810 410.0363,-1810 410.0363,-1783 478.2609,-1783 478.2609,-1810"/>
<text text-anchor="middle" x="444.1486" y="-1792.3" font-family="Helvetica,sans-Serif" font-size="14.00" fill="#000000">Provider</text>
</g>
<!-- Backbone&#45;&#45;Provider -->
<g id="edge52" class="edge">
<title>Backbone--Provider</title>
<path fill="none" stroke="#000000" d="M297.143,-1796.5C330.6235,-1796.5 378.1081,-1796.5 409.9622,-1796.5"/>
</g>
<!-- Resellers -->
<g id="node62" class="node">
<title>Resellers</title>
<polygon fill="none" stroke="#000000" stroke-dasharray="5,2" points="663.3835,-1810 588.7257,-1810 588.7257,-1783 663.3835,-1783 663.3835,-1810"/>
<text text-anchor="middle" x="626.0546" y="-1792.3" font-family="Helvetica,sans-Serif" font-size="14.00" fill="#000000">Resellers</text>
</g>
<!-- Provider&#45;&#45;Resellers -->
<g id="edge53" class="edge">
<title>Provider--Resellers</title>
<path fill="none" stroke="#000000" d="M478.3637,-1796.5C509.8565,-1796.5 556.4597,-1796.5 588.8627,-1796.5"/>
</g>
<!-- Vesion 03&#45;03&#45;2021 -->
<g id="node63" class="node">
<title>Vesion 03-03-2021</title>
<polygon fill="none" stroke="#000000" stroke-dasharray="5,2" points="324.8396,-1864 190.3118,-1864 190.3118,-1837 324.8396,-1837 324.8396,-1864"/>
<text text-anchor="middle" x="257.5757" y="-1846.3" font-family="Helvetica,sans-Serif" font-size="14.00" fill="#000000">Vesion 03-03-2021</text>
</g>
<!-- NTD -->
<g id="node64" class="node">
<title>NTD</title>
<polygon fill="none" stroke="#000000" stroke-dasharray="5,2" points="91.3239,-1872.7664 46.7911,-1872.7664 46.7911,-1828.2336 91.3239,-1828.2336 91.3239,-1872.7664"/>
<polyline fill="none" stroke="#000000" stroke-dasharray="5,2" points="58.7911,-1872.7664 46.7911,-1860.7664 "/>
<polyline fill="none" stroke="#000000" stroke-dasharray="5,2" points="46.7911,-1840.2336 58.7911,-1828.2336 "/>
<polyline fill="none" stroke="#000000" stroke-dasharray="5,2" points="79.3239,-1828.2336 91.3239,-1840.2336 "/>
<polyline fill="none" stroke="#000000" stroke-dasharray="5,2" points="91.3239,-1860.7664 79.3239,-1872.7664 "/>
<text text-anchor="middle" x="69.0575" y="-1846.3" font-family="Helvetica,sans-Serif" font-size="14.00" fill="#ffa500">NTD</text>
</g>
<!-- NTD&#45;&#45;Vesion 03&#45;03&#45;2021 -->
</g>
</svg>
