<svg xmlns="http://www.w3.org/2000/svg" xmlns:xlink="http://www.w3.org/1999/xlink" width="1163pt" height="1874pt" viewBox="0.00 0.00 1163.12 1873.75">
<g id="graph0" class="graph" transform="scale(1 1) rotate(0) translate(4 1869.7491)">
<title>graphname</title>
<polygon fill="#ffffff" stroke="transparent" points="-4,4 -4,-1869.7491 1159.1193,-1869.7491 1159.1193,4 -4,4"/>
<!-- United Newsserver  -->
<g id="node1" class="node">
<title>United Newsserver </title>
<polygon fill="#6c1494" stroke="#6c1494" points="204.1255,-50 65.8954,-50 65.8954,-23 204.1255,-23 204.1255,-50"/>
<text text-anchor="middle" x="135.0105" y="-32.3" font-family="Helvetica,sans-Serif" font-size="14.00" fill="#ffffff">United Newsserver </text>
</g>
<!-- Elbracht -->
<g id="node2" class="node">
<title>Elbracht</title>
<polygon fill="#6c1494" stroke="#6c1494" points="449.4898,-50 381.8037,-50 381.8037,-23 449.4898,-23 449.4898,-50"/>
<text text-anchor="middle" x="415.6467" y="-32.3" font-family="Helvetica,sans-Serif" font-size="14.00" fill="#ffffff">Elbracht</text>
</g>
<!-- United Newsserver &#45;&#45;Elbracht -->
<g id="edge1" class="edge">
<title>United Newsserver --Elbracht</title>
<path fill="none" stroke="#000000" d="M204.3813,-36.5C260.8663,-36.5 338.1664,-36.5 381.8914,-36.5"/>
</g>
<!-- United Newsserver -->
<g id="node3" class="node">
<title>United Newsserver</title>
<polygon fill="#6c1494" stroke="#6c1494" points="815.5984,-72 681.1493,-72 681.1493,-45 815.5984,-45 815.5984,-72"/>
<text text-anchor="middle" x="748.3738" y="-54.3" font-family="Helvetica,sans-Serif" font-size="14.00" fill="#ffffff">United Newsserver</text>
</g>
<!-- Elbracht&#45;&#45;United Newsserver -->
<g id="edge2" class="edge">
<title>Elbracht--United Newsserver</title>
<path fill="none" stroke="#000000" d="M449.3814,-38.7305C503.4886,-42.3081 610.7094,-49.3976 680.9578,-54.0424"/>
</g>
<!-- Premium News  -->
<g id="node4" class="node">
<title>Premium News </title>
<polygon fill="#6c1494" stroke="#6c1494" points="805.6413,-27 691.1064,-27 691.1064,0 805.6413,0 805.6413,-27"/>
<text text-anchor="middle" x="748.3738" y="-9.3" font-family="Helvetica,sans-Serif" font-size="14.00" fill="#ffffff">Premium News </text>
</g>
<!-- Elbracht&#45;&#45;Premium News  -->
<g id="edge3" class="edge">
<title>Elbracht--Premium News </title>
<path fill="none" stroke="#000000" d="M449.3814,-34.1681C506.132,-30.2451 621.3127,-22.2832 690.9785,-17.4675"/>
</g>
<!-- NewsGuy  -->
<g id="node5" class="node">
<title>NewsGuy </title>
<polygon fill="#92623a" stroke="#92623a" points="175.0713,-151 94.9497,-151 94.9497,-124 175.0713,-124 175.0713,-151"/>
<text text-anchor="middle" x="135.0105" y="-133.3" font-family="Helvetica,sans-Serif" font-size="14.00" fill="#ffffff">NewsGuy </text>
</g>
<!-- NewsGuy / HW Media -->
<g id="node6" class="node">
<title>NewsGuy / HW Media</title>
<polygon fill="#92623a" stroke="#92623a" points="492.3147,-151 338.9788,-151 338.9788,-124 492.3147,-124 492.3147,-151"/>
<text text-anchor="middle" x="415.6467" y="-133.3" font-family="Helvetica,sans-Serif" font-size="14.00" fill="#ffffff">NewsGuy / HW Media</text>
</g>
<!-- NewsGuy &#45;&#45;NewsGuy / HW Media -->
<g id="edge4" class="edge">
<title>NewsGuy --NewsGuy / HW Media</title>
<path fill="none" stroke="#000000" d="M175.2188,-137.5C217.7312,-137.5 285.825,-137.5 338.7109,-137.5"/>
</g>
<!-- NewsGuy -->
<g id="node7" class="node">
<title>NewsGuy</title>
<polygon fill="#92623a" stroke="#92623a" points="786.5436,-162 710.2041,-162 710.2041,-135 786.5436,-135 786.5436,-162"/>
<text text-anchor="middle" x="748.3738" y="-144.3" font-family="Helvetica,sans-Serif" font-size="14.00" fill="#ffffff">NewsGuy</text>
</g>
<!-- NewsGuy / HW Media&#45;&#45;NewsGuy -->
<g id="edge5" class="edge">
<title>NewsGuy / HW Media--NewsGuy</title>
<path fill="none" stroke="#000000" d="M492.3988,-140.0374C560.53,-142.2899 657.2417,-145.4872 710.1469,-147.2362"/>
</g>
<!-- nntpjunkie.com -->
<g id="node8" class="node">
<title>nntpjunkie.com</title>
<polygon fill="#92623a" stroke="#92623a" points="803.5071,-117 693.2406,-117 693.2406,-90 803.5071,-90 803.5071,-117"/>
<text text-anchor="middle" x="748.3738" y="-99.3" font-family="Helvetica,sans-Serif" font-size="14.00" fill="#ffffff">nntpjunkie.com</text>
</g>
<!-- NewsGuy / HW Media&#45;&#45;nntpjunkie.com -->
<g id="edge6" class="edge">
<title>NewsGuy / HW Media--nntpjunkie.com</title>
<path fill="none" stroke="#000000" d="M492.3988,-129.657C553.8128,-123.3814 638.4496,-114.7327 693.2908,-109.1287"/>
</g>
<!-- Newscene  -->
<g id="node9" class="node">
<title>Newscene </title>
<polygon fill="#ec2efa" stroke="#ec2efa" points="177.745,-218 92.276,-218 92.276,-191 177.745,-191 177.745,-218"/>
<text text-anchor="middle" x="135.0105" y="-200.3" font-family="Helvetica,sans-Serif" font-size="14.00" fill="#ffffff">Newscene </text>
</g>
<!-- Novia / HW Media -->
<g id="node10" class="node">
<title>Novia / HW Media</title>
<polygon fill="#ec2efa" stroke="#ec2efa" points="479.9239,-218 351.3695,-218 351.3695,-191 479.9239,-191 479.9239,-218"/>
<text text-anchor="middle" x="415.6467" y="-200.3" font-family="Helvetica,sans-Serif" font-size="14.00" fill="#ffffff">Novia / HW Media</text>
</g>
<!-- Newscene &#45;&#45;Novia / HW Media -->
<g id="edge7" class="edge">
<title>Newscene --Novia / HW Media</title>
<path fill="none" stroke="#000000" d="M177.6331,-204.5C223.7867,-204.5 297.9349,-204.5 351.2108,-204.5"/>
</g>
<!-- Newscene -->
<g id="node11" class="node">
<title>Newscene</title>
<polygon fill="#ec2efa" stroke="#ec2efa" points="789.2182,-218 707.5295,-218 707.5295,-191 789.2182,-191 789.2182,-218"/>
<text text-anchor="middle" x="748.3738" y="-200.3" font-family="Helvetica,sans-Serif" font-size="14.00" fill="#ffffff">Newscene</text>
</g>
<!-- Novia / HW Media&#45;&#45;Newscene -->
<g id="edge8" class="edge">
<title>Novia / HW Media--Newscene</title>
<path fill="none" stroke="#000000" d="M480.1944,-204.5C547.4721,-204.5 650.8456,-204.5 707.5932,-204.5"/>
</g>
<!-- Premium News -->
<g id="node12" class="node">
<title>Premium News</title>
<polygon fill="#ec2efa" stroke="#ec2efa" points="1118.6739,-218 1007.9206,-218 1007.9206,-191 1118.6739,-191 1118.6739,-218"/>
<text text-anchor="middle" x="1063.2972" y="-200.3" font-family="Helvetica,sans-Serif" font-size="14.00" fill="#ffffff">Premium News</text>
</g>
<!-- Newscene&#45;&#45;Premium News -->
<g id="edge9" class="edge">
<title>Newscene--Premium News</title>
<path fill="none" stroke="#000000" d="M789.2217,-204.5C844.9747,-204.5 945.1026,-204.5 1007.6686,-204.5"/>
</g>
<!-- Giganews -->
<g id="node13" class="node">
<title>Giganews</title>
<polygon fill="#3098d8" stroke="#3098d8" points="174.245,-286 95.7759,-286 95.7759,-259 174.245,-259 174.245,-286"/>
<text text-anchor="middle" x="135.0105" y="-268.3" font-family="Helvetica,sans-Serif" font-size="14.00" fill="#ffffff">Giganews</text>
</g>
<!-- Giganews  -->
<g id="node14" class="node">
<title>Giganews </title>
<polygon fill="#3098d8" stroke="#3098d8" points="456.7716,-286 374.5218,-286 374.5218,-259 456.7716,-259 456.7716,-286"/>
<text text-anchor="middle" x="415.6467" y="-268.3" font-family="Helvetica,sans-Serif" font-size="14.00" fill="#ffffff">Giganews </text>
</g>
<!-- Giganews&#45;&#45;Giganews  -->
<g id="edge10" class="edge">
<title>Giganews--Giganews </title>
<path fill="none" stroke="#000000" d="M174.3272,-272.5C227.1247,-272.5 320.5068,-272.5 374.3145,-272.5"/>
</g>
<!-- Giganews &#160; -->
<g id="node15" class="node">
<title>Giganews  </title>
<polygon fill="#3098d8" stroke="#3098d8" points="791.3892,-308 705.3584,-308 705.3584,-281 791.3892,-281 791.3892,-308"/>
<text text-anchor="middle" x="748.3738" y="-290.3" font-family="Helvetica,sans-Serif" font-size="14.00" fill="#ffffff">Giganews  </text>
</g>
<!-- Giganews &#45;&#45;Giganews &#160; -->
<g id="edge11" class="edge">
<title>Giganews --Giganews  </title>
<path fill="none" stroke="#000000" d="M456.7793,-275.2197C520.068,-279.4044 640.7493,-287.3838 705.23,-291.6473"/>
</g>
<!-- Supernews -->
<g id="node16" class="node">
<title>Supernews</title>
<polygon fill="#3098d8" stroke="#3098d8" points="791.3906,-263 705.357,-263 705.357,-236 791.3906,-236 791.3906,-263"/>
<text text-anchor="middle" x="748.3738" y="-245.3" font-family="Helvetica,sans-Serif" font-size="14.00" fill="#ffffff">Supernews</text>
</g>
<!-- Giganews &#45;&#45;Supernews -->
<g id="edge12" class="edge">
<title>Giganews --Supernews</title>
<path fill="none" stroke="#000000" d="M456.7793,-269.6567C520.068,-265.2818 640.7493,-256.9396 705.23,-252.4823"/>
</g>
<!-- PowerUsenet\nRhinoNewsgroups\nUsenet.net -->
<g id="node17" class="node">
<title>PowerUsenet\nRhinoNewsgroups\nUsenet.net</title>
<polygon fill="#3098d8" stroke="#3098d8" points="1128.6455,-323.9014 997.949,-323.9014 997.949,-265.0986 1128.6455,-265.0986 1128.6455,-323.9014"/>
<text text-anchor="middle" x="1063.2972" y="-307.1" font-family="Helvetica,sans-Serif" font-size="14.00" fill="#ffffff">PowerUsenet</text>
<text text-anchor="middle" x="1063.2972" y="-290.3" font-family="Helvetica,sans-Serif" font-size="14.00" fill="#ffffff">RhinoNewsgroups</text>
<text text-anchor="middle" x="1063.2972" y="-273.5" font-family="Helvetica,sans-Serif" font-size="14.00" fill="#ffffff">Usenet.net</text>
</g>
<!-- Giganews &#160;&#45;&#45;PowerUsenet\nRhinoNewsgroups\nUsenet.net -->
<g id="edge13" class="edge">
<title>Giganews  --PowerUsenet\nRhinoNewsgroups\nUsenet.net</title>
<path fill="none" stroke="#000000" d="M791.5023,-294.5C844.8187,-294.5 936.0787,-294.5 997.9979,-294.5"/>
</g>
<!-- Usenet.Farm  -->
<g id="node18" class="node">
<title>Usenet.Farm </title>
<polygon fill="#368a8b" stroke="#368a8b" points="185.2933,-376 84.7277,-376 84.7277,-349 185.2933,-349 185.2933,-376"/>
<text text-anchor="middle" x="135.0105" y="-358.3" font-family="Helvetica,sans-Serif" font-size="14.00" fill="#ffffff">Usenet.Farm </text>
</g>
<!-- Its Hosted -->
<g id="node19" class="node">
<title>Its Hosted</title>
<polygon fill="#368a8b" stroke="#368a8b" points="480.1806,-362.5 447.9137,-383.0013 383.3798,-383.0013 351.1128,-362.5 383.3798,-341.9987 447.9137,-341.9987 480.1806,-362.5"/>
<text text-anchor="middle" x="415.6467" y="-358.3" font-family="Helvetica,sans-Serif" font-size="14.00" fill="#ffffff">Its Hosted</text>
</g>
<!-- Usenet.Farm &#45;&#45;Its Hosted -->
<g id="edge14" class="edge">
<title>Usenet.Farm --Its Hosted</title>
<path fill="none" stroke="#000000" d="M185.5067,-362.5C231.823,-362.5 300.6639,-362.5 350.9855,-362.5"/>
</g>
<!-- Usenet.Farm -->
<g id="node20" class="node">
<title>Usenet.Farm</title>
<polygon fill="#368a8b" stroke="#368a8b" points="827.598,-362.5 787.9859,-383.0013 708.7618,-383.0013 669.1497,-362.5 708.7618,-341.9987 787.9859,-341.9987 827.598,-362.5"/>
<text text-anchor="middle" x="748.3738" y="-358.3" font-family="Helvetica,sans-Serif" font-size="14.00" fill="#ffffff">Usenet.Farm</text>
</g>
<!-- Its Hosted&#45;&#45;Usenet.Farm -->
<g id="edge15" class="edge">
<title>Its Hosted--Usenet.Farm</title>
<path fill="none" stroke="#000000" d="M480.1944,-362.5C534.1488,-362.5 611.3183,-362.5 669.0362,-362.5"/>
</g>
<!-- UsenetNews\nFrugalUsenet -->
<g id="node21" class="node">
<title>UsenetNews\nFrugalUsenet</title>
<polygon fill="#368a8b" stroke="#368a8b" points="1113.3098,-383.1019 1013.2846,-383.1019 1013.2846,-341.8981 1113.3098,-341.8981 1113.3098,-383.1019"/>
<text text-anchor="middle" x="1063.2972" y="-366.7" font-family="Helvetica,sans-Serif" font-size="14.00" fill="#ffffff">UsenetNews</text>
<text text-anchor="middle" x="1063.2972" y="-349.9" font-family="Helvetica,sans-Serif" font-size="14.00" fill="#ffffff">FrugalUsenet</text>
</g>
<!-- Usenet.Farm&#45;&#45;UsenetNews\nFrugalUsenet -->
<g id="edge16" class="edge">
<title>Usenet.Farm--UsenetNews\nFrugalUsenet</title>
<path fill="none" stroke="#000000" d="M827.8423,-362.5C885.9685,-362.5 963.0647,-362.5 1012.9286,-362.5"/>
</g>
<!-- Uzo Reto -->
<g id="node22" class="node">
<title>Uzo Reto</title>
<polygon fill="#f6b72d" stroke="#f6b72d" points="172.3535,-436 97.6675,-436 97.6675,-409 172.3535,-409 172.3535,-436"/>
<text text-anchor="middle" x="135.0105" y="-418.3" font-family="Helvetica,sans-Serif" font-size="14.00" fill="#ffffff">Uzo Reto</text>
</g>
<!-- ViperNews -->
<g id="node23" class="node">
<title>ViperNews</title>
<polygon fill="#f6b72d" stroke="#f6b72d" points="483.7713,-422.5 449.709,-443.0013 381.5845,-443.0013 347.5222,-422.5 381.5845,-401.9987 449.709,-401.9987 483.7713,-422.5"/>
<text text-anchor="middle" x="415.6467" y="-418.3" font-family="Helvetica,sans-Serif" font-size="14.00" fill="#ffffff">ViperNews</text>
</g>
<!-- Uzo Reto&#45;&#45;ViperNews -->
<g id="edge17" class="edge">
<title>Uzo Reto--ViperNews</title>
<path fill="none" stroke="#000000" d="M172.2768,-422.5C216.8573,-422.5 292.3675,-422.5 347.4789,-422.5"/>
</g>
<!-- ViperNews  -->
<g id="node24" class="node">
<title>ViperNews </title>
<polygon fill="#f6b72d" stroke="#f6b72d" points="819.8512,-422.5 784.1125,-443.0013 712.6352,-443.0013 676.8965,-422.5 712.6352,-401.9987 784.1125,-401.9987 819.8512,-422.5"/>
<text text-anchor="middle" x="748.3738" y="-418.3" font-family="Helvetica,sans-Serif" font-size="14.00" fill="#ffffff">ViperNews </text>
</g>
<!-- ViperNews&#45;&#45;ViperNews  -->
<g id="edge18" class="edge">
<title>ViperNews--ViperNews </title>
<path fill="none" stroke="#000000" d="M483.7819,-422.5C540.0588,-422.5 619.6997,-422.5 676.8806,-422.5"/>
</g>
<!--  UsenetNews\nNovaUsenet -->
<g id="node25" class="node">
<title> UsenetNews\nNovaUsenet</title>
<polygon fill="#f6b72d" stroke="#f6b72d" points="1113.0289,-443.1019 1013.5656,-443.1019 1013.5656,-401.8981 1113.0289,-401.8981 1113.0289,-443.1019"/>
<text text-anchor="middle" x="1063.2972" y="-426.7" font-family="Helvetica,sans-Serif" font-size="14.00" fill="#ffffff"> UsenetNews</text>
<text text-anchor="middle" x="1063.2972" y="-409.9" font-family="Helvetica,sans-Serif" font-size="14.00" fill="#ffffff">NovaUsenet</text>
</g>
<!-- ViperNews &#45;&#45; UsenetNews\nNovaUsenet -->
<g id="edge19" class="edge">
<title>ViperNews -- UsenetNews\nNovaUsenet</title>
<path fill="none" stroke="#000000" d="M820.2289,-422.5C879.2282,-422.5 961.2649,-422.5 1013.3199,-422.5"/>
</g>
<!-- UsenetExpress -->
<g id="node26" class="node">
<title>UsenetExpress</title>
<polygon fill="#2a7325" stroke="#2a7325" points="190.4179,-510 79.603,-510 79.603,-483 190.4179,-483 190.4179,-510"/>
<text text-anchor="middle" x="135.0105" y="-492.3" font-family="Helvetica,sans-Serif" font-size="14.00" fill="#ffffff">UsenetExpress</text>
</g>
<!-- UsenetExpress  -->
<g id="node27" class="node">
<title>UsenetExpress </title>
<polygon fill="#2a7325" stroke="#2a7325" points="472.9449,-533 358.3486,-533 358.3486,-506 472.9449,-506 472.9449,-533"/>
<text text-anchor="middle" x="415.6467" y="-515.3" font-family="Helvetica,sans-Serif" font-size="14.00" fill="#ffffff">UsenetExpress </text>
</g>
<!-- UsenetExpress&#45;&#45;UsenetExpress  -->
<g id="edge20" class="edge">
<title>UsenetExpress--UsenetExpress </title>
<path fill="none" stroke="#000000" d="M190.4552,-501.0441C238.8559,-505.0108 308.8372,-510.7463 357.9054,-514.7677"/>
</g>
<!-- NewsGroupDirect -->
<g id="node32" class="node">
<title>NewsGroupDirect</title>
<polygon fill="#2a7325" stroke="#2a7325" points="479.0893,-488 352.2042,-488 352.2042,-461 479.0893,-461 479.0893,-488"/>
<text text-anchor="middle" x="415.6467" y="-470.3" font-family="Helvetica,sans-Serif" font-size="14.00" fill="#ffffff">NewsGroupDirect</text>
</g>
<!-- UsenetExpress&#45;&#45;NewsGroupDirect -->
<g id="edge25" class="edge">
<title>UsenetExpress--NewsGroupDirect</title>
<path fill="none" stroke="#000000" d="M190.4552,-492.1535C237.0189,-488.5032 303.5562,-483.2871 352.2304,-479.4714"/>
</g>
<!-- UsenetExpress &#160; -->
<g id="node28" class="node">
<title>UsenetExpress  </title>
<polygon fill="#2a7325" stroke="#2a7325" points="807.5629,-578 689.1848,-578 689.1848,-551 807.5629,-551 807.5629,-578"/>
<text text-anchor="middle" x="748.3738" y="-560.3" font-family="Helvetica,sans-Serif" font-size="14.00" fill="#ffffff">UsenetExpress  </text>
</g>
<!-- UsenetExpress &#45;&#45;UsenetExpress &#160; -->
<g id="edge21" class="edge">
<title>UsenetExpress --UsenetExpress  </title>
<path fill="none" stroke="#000000" d="M473.0012,-528.5385C499.7943,-532.6648 532.14,-537.5096 561.2725,-541.5 603.9109,-547.3403 652.1133,-553.2494 688.9131,-557.6155"/>
</g>
<!-- NewsDemon -->
<g id="node30" class="node">
<title>NewsDemon</title>
<polygon fill="#2a7325" stroke="#2a7325" points="796.4847,-533 700.263,-533 700.263,-506 796.4847,-506 796.4847,-533"/>
<text text-anchor="middle" x="748.3738" y="-515.3" font-family="Helvetica,sans-Serif" font-size="14.00" fill="#ffffff">NewsDemon</text>
</g>
<!-- UsenetExpress &#45;&#45;NewsDemon -->
<g id="edge23" class="edge">
<title>UsenetExpress --NewsDemon</title>
<path fill="none" stroke="#000000" d="M473.2235,-519.5C537.3927,-519.5 640.0144,-519.5 700.1321,-519.5"/>
</g>
<!-- NewsGroupDirect  -->
<g id="node31" class="node">
<title>NewsGroupDirect </title>
<polygon fill="#2a7325" stroke="#2a7325" points="813.7067,-488 683.041,-488 683.041,-461 813.7067,-461 813.7067,-488"/>
<text text-anchor="middle" x="748.3738" y="-470.3" font-family="Helvetica,sans-Serif" font-size="14.00" fill="#ffffff">NewsGroupDirect </text>
</g>
<!-- UsenetExpress &#45;&#45;NewsGroupDirect  -->
<g id="edge24" class="edge">
<title>UsenetExpress --NewsGroupDirect </title>
<path fill="none" stroke="#000000" d="M472.9763,-509.9085C499.7643,-505.5647 532.1127,-500.5155 561.2725,-496.5 601.6116,-490.9451 646.9669,-485.5898 682.9186,-481.5539"/>
</g>
<!-- UsenetNews\nUsenetPrime\n UsenetFire\nThunderNews\n theCubeNet -->
<g id="node29" class="node">
<title>UsenetNews\nUsenetPrime\n UsenetFire\nThunderNews\n theCubeNet</title>
<polygon fill="#2a7325" stroke="#2a7325" points="1114.9193,-610.5 1011.6752,-610.5 1011.6752,-518.5 1114.9193,-518.5 1114.9193,-610.5"/>
<text text-anchor="middle" x="1063.2972" y="-593.9" font-family="Helvetica,sans-Serif" font-size="14.00" fill="#ffffff">UsenetNews</text>
<text text-anchor="middle" x="1063.2972" y="-577.1" font-family="Helvetica,sans-Serif" font-size="14.00" fill="#ffffff">UsenetPrime</text>
<text text-anchor="middle" x="1063.2972" y="-560.3" font-family="Helvetica,sans-Serif" font-size="14.00" fill="#ffffff"> UsenetFire</text>
<text text-anchor="middle" x="1063.2972" y="-543.5" font-family="Helvetica,sans-Serif" font-size="14.00" fill="#ffffff">ThunderNews</text>
<text text-anchor="middle" x="1063.2972" y="-526.7" font-family="Helvetica,sans-Serif" font-size="14.00" fill="#ffffff"> theCubeNet</text>
</g>
<!-- UsenetExpress &#160;&#45;&#45;UsenetNews\nUsenetPrime\n UsenetFire\nThunderNews\n theCubeNet -->
<g id="edge22" class="edge">
<title>UsenetExpress  --UsenetNews\nUsenetPrime\n UsenetFire\nThunderNews\n theCubeNet</title>
<path fill="none" stroke="#000000" d="M807.6085,-564.5C866.4063,-564.5 955.6284,-564.5 1011.6302,-564.5"/>
</g>
<!-- NewsGroupDirect&#45;&#45;NewsGroupDirect  -->
<g id="edge26" class="edge">
<title>NewsGroupDirect--NewsGroupDirect </title>
<path fill="none" stroke="#000000" d="M479.0133,-474.5C537.4639,-474.5 623.88,-474.5 682.9696,-474.5"/>
</g>
<!-- Abavia -->
<g id="node33" class="node">
<title>Abavia</title>
<polygon fill="#0000ff" stroke="#0000ff" points="164.3019,-924 105.7191,-924 105.7191,-897 164.3019,-897 164.3019,-924"/>
<text text-anchor="middle" x="135.0105" y="-906.3" font-family="Helvetica,sans-Serif" font-size="14.00" fill="#ffffff">Abavia</text>
</g>
<!-- Abavia  -->
<g id="node34" class="node">
<title>Abavia </title>
<polygon fill="#0000ff" stroke="#0000ff" points="446.8291,-924 384.4643,-924 384.4643,-897 446.8291,-897 446.8291,-924"/>
<text text-anchor="middle" x="415.6467" y="-906.3" font-family="Helvetica,sans-Serif" font-size="14.00" fill="#ffffff">Abavia </text>
</g>
<!-- Abavia&#45;&#45;Abavia  -->
<g id="edge27" class="edge">
<title>Abavia--Abavia </title>
<path fill="none" stroke="#000000" d="M164.5131,-910.5C217.8486,-910.5 329.8305,-910.5 384.4096,-910.5"/>
</g>
<!-- Cheapnews -->
<g id="node35" class="node">
<title>Cheapnews</title>
<polygon fill="#0000ff" stroke="#0000ff" points="793.2827,-1059 703.465,-1059 703.465,-1032 793.2827,-1032 793.2827,-1059"/>
<text text-anchor="middle" x="748.3738" y="-1041.3" font-family="Helvetica,sans-Serif" font-size="14.00" fill="#ffffff">Cheapnews</text>
</g>
<!-- Abavia &#45;&#45;Cheapnews -->
<g id="edge28" class="edge">
<title>Abavia --Cheapnews</title>
<path fill="none" stroke="#000000" d="M428.1421,-924.0266C451.5844,-948.4229 504.9039,-999.3978 561.2725,-1022.5 607.1509,-1041.3029 664.2552,-1045.9059 703.2308,-1046.5308"/>
</g>
<!-- EasyUsenet -->
<g id="node36" class="node">
<title>EasyUsenet</title>
<polygon fill="#0000ff" stroke="#0000ff" points="794.3392,-1014 702.4085,-1014 702.4085,-987 794.3392,-987 794.3392,-1014"/>
<text text-anchor="middle" x="748.3738" y="-996.3" font-family="Helvetica,sans-Serif" font-size="14.00" fill="#ffffff">EasyUsenet</text>
</g>
<!-- Abavia &#45;&#45;EasyUsenet -->
<g id="edge29" class="edge">
<title>Abavia --EasyUsenet</title>
<path fill="none" stroke="#000000" d="M438.9961,-924.0021C467.0571,-939.5662 516.03,-964.6488 561.2725,-977.5 608.338,-990.869 664.2411,-996.4673 702.6086,-998.8115"/>
</g>
<!-- Usenet.nl -->
<g id="node37" class="node">
<title>Usenet.nl</title>
<polygon fill="#0000ff" stroke="#0000ff" points="785.9988,-969 710.7489,-969 710.7489,-942 785.9988,-942 785.9988,-969"/>
<text text-anchor="middle" x="748.3738" y="-951.3" font-family="Helvetica,sans-Serif" font-size="14.00" fill="#ffffff">Usenet.nl</text>
</g>
<!-- Abavia &#45;&#45;Usenet.nl -->
<g id="edge30" class="edge">
<title>Abavia --Usenet.nl</title>
<path fill="none" stroke="#000000" d="M446.8587,-915.4703C476.322,-920.1016 521.7537,-927.087 561.2725,-932.5 612.9898,-939.5839 672.8929,-946.7689 710.7055,-951.1791"/>
</g>
<!-- Usenet.org -->
<g id="node38" class="node">
<title>Usenet.org</title>
<polygon fill="#0000ff" stroke="#0000ff" points="790.8365,-924 705.9112,-924 705.9112,-897 790.8365,-897 790.8365,-924"/>
<text text-anchor="middle" x="748.3738" y="-906.3" font-family="Helvetica,sans-Serif" font-size="14.00" fill="#ffffff">Usenet.org</text>
</g>
<!-- Abavia &#45;&#45;Usenet.org -->
<g id="edge31" class="edge">
<title>Abavia --Usenet.org</title>
<path fill="none" stroke="#000000" d="M446.9489,-910.5C506.9667,-910.5 638.2714,-910.5 706.0398,-910.5"/>
</g>
<!-- Usenext -->
<g id="node39" class="node">
<title>Usenext</title>
<polygon fill="#0000ff" stroke="#0000ff" points="782.2197,-879 714.528,-879 714.528,-852 782.2197,-852 782.2197,-879"/>
<text text-anchor="middle" x="748.3738" y="-861.3" font-family="Helvetica,sans-Serif" font-size="14.00" fill="#ffffff">Usenext</text>
</g>
<!-- Abavia &#45;&#45;Usenext -->
<g id="edge32" class="edge">
<title>Abavia --Usenext</title>
<path fill="none" stroke="#000000" d="M446.8417,-905.2067C476.2931,-900.2963 521.7166,-892.9471 561.2725,-887.5 614.734,-880.138 677.006,-873.1268 714.5222,-869.0726"/>
</g>
<!-- XS News / Xenna -->
<g id="node40" class="node">
<title>XS News / Xenna</title>
<polygon fill="#0000ff" stroke="#0000ff" points="811.0726,-834 685.6751,-834 685.6751,-807 811.0726,-807 811.0726,-834"/>
<text text-anchor="middle" x="748.3738" y="-816.3" font-family="Helvetica,sans-Serif" font-size="14.00" fill="#ffffff">XS News / Xenna</text>
</g>
<!-- Abavia &#45;&#45;XS News / Xenna -->
<g id="edge33" class="edge">
<title>Abavia --XS News / Xenna</title>
<path fill="none" stroke="#000000" d="M438.9558,-896.7446C466.9782,-880.8984 515.9138,-855.3936 561.2725,-842.5 601.699,-831.0084 648.6826,-825.5103 685.4548,-822.8841"/>
</g>
<!-- XS News -->
<g id="node41" class="node">
<title>XS News</title>
<polygon fill="#0000ff" stroke="#0000ff" points="784.9348,-789 711.8129,-789 711.8129,-762 784.9348,-762 784.9348,-789"/>
<text text-anchor="middle" x="748.3738" y="-771.3" font-family="Helvetica,sans-Serif" font-size="14.00" fill="#ffffff">XS News</text>
</g>
<!-- Abavia &#45;&#45;XS News -->
<g id="edge34" class="edge">
<title>Abavia --XS News</title>
<path fill="none" stroke="#000000" d="M428.1036,-896.8223C451.4834,-872.1589 504.7051,-820.6517 561.2725,-797.5 610.6119,-777.3065 672.9736,-773.9091 711.7717,-774.1057"/>
</g>
<!-- aEton\nBulknews\nDreamload\nGebruikhet\nI&#45;Telligent\nNewsGrabber\nNewsXS\nSMS Usenet\nStingy Usenet\nUsenet.today\nUsenetAgency\nUsenetDiscount\nUsenetDiscounter.com\nUsenet&#45;Server\nUseNight\nXS Usenet\nZ51 -->
<g id="node42" class="node">
<title>aEton\nBulknews\nDreamload\nGebruikhet\nI-Telligent\nNewsGrabber\nNewsXS\nSMS Usenet\nStingy Usenet\nUsenet.today\nUsenetAgency\nUsenetDiscount\nUsenetDiscounter.com\nUsenet-Server\nUseNight\nXS Usenet\nZ51</title>
<polygon fill="#0000ff" stroke="#0000ff" points="1141.8714,-922.1003 984.7231,-922.1003 984.7231,-628.8997 1141.8714,-628.8997 1141.8714,-922.1003"/>
<text text-anchor="middle" x="1063.2972" y="-905.7" font-family="Helvetica,sans-Serif" font-size="14.00" fill="#ffffff">aEton</text>
<text text-anchor="middle" x="1063.2972" y="-888.9" font-family="Helvetica,sans-Serif" font-size="14.00" fill="#ffffff">Bulknews</text>
<text text-anchor="middle" x="1063.2972" y="-872.1" font-family="Helvetica,sans-Serif" font-size="14.00" fill="#ffffff">Dreamload</text>
<text text-anchor="middle" x="1063.2972" y="-855.3" font-family="Helvetica,sans-Serif" font-size="14.00" fill="#ffffff">Gebruikhet</text>
<text text-anchor="middle" x="1063.2972" y="-838.5" font-family="Helvetica,sans-Serif" font-size="14.00" fill="#ffffff">I-Telligent</text>
<text text-anchor="middle" x="1063.2972" y="-821.7" font-family="Helvetica,sans-Serif" font-size="14.00" fill="#ffffff">NewsGrabber</text>
<text text-anchor="middle" x="1063.2972" y="-804.9" font-family="Helvetica,sans-Serif" font-size="14.00" fill="#ffffff">NewsXS</text>
<text text-anchor="middle" x="1063.2972" y="-788.1" font-family="Helvetica,sans-Serif" font-size="14.00" fill="#ffffff">SMS Usenet</text>
<text text-anchor="middle" x="1063.2972" y="-771.3" font-family="Helvetica,sans-Serif" font-size="14.00" fill="#ffffff">Stingy Usenet</text>
<text text-anchor="middle" x="1063.2972" y="-754.5" font-family="Helvetica,sans-Serif" font-size="14.00" fill="#ffffff">Usenet.today</text>
<text text-anchor="middle" x="1063.2972" y="-737.7" font-family="Helvetica,sans-Serif" font-size="14.00" fill="#ffffff">UsenetAgency</text>
<text text-anchor="middle" x="1063.2972" y="-720.9" font-family="Helvetica,sans-Serif" font-size="14.00" fill="#ffffff">UsenetDiscount</text>
<text text-anchor="middle" x="1063.2972" y="-704.1" font-family="Helvetica,sans-Serif" font-size="14.00" fill="#ffffff">UsenetDiscounter.com</text>
<text text-anchor="middle" x="1063.2972" y="-687.3" font-family="Helvetica,sans-Serif" font-size="14.00" fill="#ffffff">Usenet-Server</text>
<text text-anchor="middle" x="1063.2972" y="-670.5" font-family="Helvetica,sans-Serif" font-size="14.00" fill="#ffffff">UseNight</text>
<text text-anchor="middle" x="1063.2972" y="-653.7" font-family="Helvetica,sans-Serif" font-size="14.00" fill="#ffffff">XS Usenet</text>
<text text-anchor="middle" x="1063.2972" y="-636.9" font-family="Helvetica,sans-Serif" font-size="14.00" fill="#ffffff">Z51</text>
</g>
<!-- XS News&#45;&#45;aEton\nBulknews\nDreamload\nGebruikhet\nI&#45;Telligent\nNewsGrabber\nNewsXS\nSMS Usenet\nStingy Usenet\nUsenet.today\nUsenetAgency\nUsenetDiscount\nUsenetDiscounter.com\nUsenet&#45;Server\nUseNight\nXS Usenet\nZ51 -->
<g id="edge35" class="edge">
<title>XS News--aEton\nBulknews\nDreamload\nGebruikhet\nI-Telligent\nNewsGrabber\nNewsXS\nSMS Usenet\nStingy Usenet\nUsenet.today\nUsenetAgency\nUsenetDiscount\nUsenetDiscounter.com\nUsenet-Server\nUseNight\nXS Usenet\nZ51</title>
<path fill="none" stroke="#000000" d="M785.1159,-775.5C833.7106,-775.5 920.6412,-775.5 984.4296,-775.5"/>
</g>
<!-- Omicron -->
<g id="node43" class="node">
<title>Omicron</title>
<polygon fill="#ff0000" stroke="#ff0000" points="169.3942,-1450 100.6268,-1450 100.6268,-1423 169.3942,-1423 169.3942,-1450"/>
<text text-anchor="middle" x="135.0105" y="-1432.3" font-family="Helvetica,sans-Serif" font-size="14.00" fill="#ffffff">Omicron</text>
</g>
<!-- Eweka Internet Services -->
<g id="node44" class="node">
<title>Eweka Internet Services</title>
<polygon fill="#ff0000" stroke="#ff0000" points="499.0682,-1544 332.2253,-1544 332.2253,-1517 499.0682,-1517 499.0682,-1544"/>
<text text-anchor="middle" x="415.6467" y="-1526.3" font-family="Helvetica,sans-Serif" font-size="14.00" fill="#ffffff">Eweka Internet Services</text>
</g>
<!-- Omicron&#45;&#45;Eweka Internet Services -->
<g id="edge36" class="edge">
<title>Omicron--Eweka Internet Services</title>
<path fill="none" stroke="#000000" d="M169.422,-1448.0262C221.3809,-1465.4301 319.6593,-1498.3487 375.046,-1516.9006"/>
</g>
<!-- HW Media -->
<g id="node46" class="node">
<title>HW Media</title>
<polygon fill="#ff0000" stroke="#ff0000" points="456.4742,-1450 374.8193,-1450 374.8193,-1423 456.4742,-1423 456.4742,-1450"/>
<text text-anchor="middle" x="415.6467" y="-1432.3" font-family="Helvetica,sans-Serif" font-size="14.00" fill="#ffffff">HW Media</text>
</g>
<!-- Omicron&#45;&#45;HW Media -->
<g id="edge38" class="edge">
<title>Omicron--HW Media</title>
<path fill="none" stroke="#000000" d="M169.422,-1436.5C221.2346,-1436.5 319.106,-1436.5 374.5769,-1436.5"/>
</g>
<!-- Base IP / HW Media -->
<g id="node53" class="node">
<title>Base IP / HW Media</title>
<polygon fill="#ff0000" stroke="#ff0000" points="486.6649,-1242 344.6285,-1242 344.6285,-1215 486.6649,-1215 486.6649,-1242"/>
<text text-anchor="middle" x="415.6467" y="-1224.3" font-family="Helvetica,sans-Serif" font-size="14.00" fill="#ffffff">Base IP / HW Media</text>
</g>
<!-- Omicron&#45;&#45;Base IP / HW Media -->
<g id="edge45" class="edge">
<title>Omicron--Base IP / HW Media</title>
<path fill="none" stroke="#000000" d="M153.4238,-1422.8525C204.2734,-1385.1642 346.2351,-1279.946 397.1656,-1242.1977"/>
</g>
<!-- Eweka -->
<g id="node45" class="node">
<title>Eweka</title>
<polygon fill="#ff0000" stroke="#ff0000" points="795.6016,-1578.5 771.9877,-1599.0013 724.76,-1599.0013 701.1461,-1578.5 724.76,-1557.9987 771.9877,-1557.9987 795.6016,-1578.5"/>
<text text-anchor="middle" x="748.3738" y="-1574.3" font-family="Helvetica,sans-Serif" font-size="14.00" fill="#ffffff">Eweka</text>
</g>
<!-- Eweka Internet Services&#45;&#45;Eweka -->
<g id="edge37" class="edge">
<title>Eweka Internet Services--Eweka</title>
<path fill="none" stroke="#000000" d="M499.1784,-1542.5505C565.7835,-1552.1591 656.1703,-1565.1985 707.7791,-1572.6437"/>
</g>
<!-- Astraweb -->
<g id="node47" class="node">
<title>Astraweb</title>
<polygon fill="#ff0000" stroke="#ff0000" points="785.7168,-1540 711.0309,-1540 711.0309,-1513 785.7168,-1513 785.7168,-1540"/>
<text text-anchor="middle" x="748.3738" y="-1522.3" font-family="Helvetica,sans-Serif" font-size="14.00" fill="#ffffff">Astraweb</text>
</g>
<!-- HW Media&#45;&#45;Astraweb -->
<g id="edge39" class="edge">
<title>HW Media--Astraweb</title>
<path fill="none" stroke="#000000" d="M438.9961,-1450.0021C467.0571,-1465.5662 516.03,-1490.6488 561.2725,-1503.5 611.9585,-1517.8974 672.8939,-1523.2826 711.1394,-1525.2967"/>
</g>
<!-- Easynews -->
<g id="node48" class="node">
<title>Easynews</title>
<polygon fill="#ff0000" stroke="#ff0000" points="788.1651,-1495 708.5826,-1495 708.5826,-1468 788.1651,-1468 788.1651,-1495"/>
<text text-anchor="middle" x="748.3738" y="-1477.3" font-family="Helvetica,sans-Serif" font-size="14.00" fill="#ffffff">Easynews</text>
</g>
<!-- HW Media&#45;&#45;Easynews -->
<g id="edge40" class="edge">
<title>HW Media--Easynews</title>
<path fill="none" stroke="#000000" d="M456.4047,-1442.9654C485.5792,-1447.518 525.8069,-1453.6421 561.2725,-1458.5 612.017,-1465.4507 670.6424,-1472.4987 708.5486,-1476.9274"/>
</g>
<!-- Newsgroup Ninja -->
<g id="node49" class="node">
<title>Newsgroup Ninja</title>
<polygon fill="#ff0000" stroke="#ff0000" points="809.437,-1450 687.3107,-1450 687.3107,-1423 809.437,-1423 809.437,-1450"/>
<text text-anchor="middle" x="748.3738" y="-1432.3" font-family="Helvetica,sans-Serif" font-size="14.00" fill="#ffffff">Newsgroup Ninja</text>
</g>
<!-- HW Media&#45;&#45;Newsgroup Ninja -->
<g id="edge41" class="edge">
<title>HW Media--Newsgroup Ninja</title>
<path fill="none" stroke="#000000" d="M456.4456,-1436.5C514.1446,-1436.5 620.0199,-1436.5 687.1649,-1436.5"/>
</g>
<!-- NewsHosting -->
<g id="node50" class="node">
<title>NewsHosting</title>
<polygon fill="#ff0000" stroke="#ff0000" points="797.8223,-1405 698.9254,-1405 698.9254,-1378 797.8223,-1378 797.8223,-1405"/>
<text text-anchor="middle" x="748.3738" y="-1387.3" font-family="Helvetica,sans-Serif" font-size="14.00" fill="#ffffff">NewsHosting</text>
</g>
<!-- HW Media&#45;&#45;NewsHosting -->
<g id="edge42" class="edge">
<title>HW Media--NewsHosting</title>
<path fill="none" stroke="#000000" d="M456.3842,-1429.6236C485.549,-1424.8088 525.7736,-1418.3884 561.2725,-1413.5 607.9298,-1407.075 661.2977,-1400.9172 699.0641,-1396.7589"/>
</g>
<!-- UsenetServer -->
<g id="node51" class="node">
<title>UsenetServer</title>
<polygon fill="#ff0000" stroke="#ff0000" points="798.9428,-1360 697.8049,-1360 697.8049,-1333 798.9428,-1333 798.9428,-1360"/>
<text text-anchor="middle" x="748.3738" y="-1342.3" font-family="Helvetica,sans-Serif" font-size="14.00" fill="#ffffff">UsenetServer</text>
</g>
<!-- HW Media&#45;&#45;UsenetServer -->
<g id="edge43" class="edge">
<title>HW Media--UsenetServer</title>
<path fill="none" stroke="#000000" d="M438.9558,-1422.7446C466.9782,-1406.8984 515.9138,-1381.3936 561.2725,-1368.5 606.2607,-1355.7117 659.3693,-1350.3458 697.4888,-1348.1003"/>
</g>
<!-- Alibis\nAnonyNews\nAtlantisNews\nBinary Boy\nBinTube\nBlockNews\nBudgetNews\nFast&#45;Usenet\nFirstload\nForte Agent\nFrugal Usenet\nHitNews\niLoad\nMaximumUsenet\nNewsFusion\nNewsGroup&#45;Binaries\nNewsGroupDownload\nNewsLeecher\nNgroups\nPrepaid&#45;Usenet\nShemes\nSimonNews\nSnelNL\nUncensored Newsfeed\nUsenet&#45;News\nUsenet.nl\nUsenet.se\nUsenet4u\nUsenetAccess\nUseNetNow\nUsenetStorm\nUsenext\nXenNews -->
<g id="node52" class="node">
<title>Alibis\nAnonyNews\nAtlantisNews\nBinary Boy\nBinTube\nBlockNews\nBudgetNews\nFast-Usenet\nFirstload\nForte Agent\nFrugal Usenet\nHitNews\niLoad\nMaximumUsenet\nNewsFusion\nNewsGroup-Binaries\nNewsGroupDownload\nNewsLeecher\nNgroups\nPrepaid-Usenet\nShemes\nSimonNews\nSnelNL\nUncensored Newsfeed\nUsenet-News\nUsenet.nl\nUsenet.se\nUsenet4u\nUsenetAccess\nUseNetNow\nUsenetStorm\nUsenext\nXenNews</title>
<polygon fill="#ff0000" stroke="#ff0000" points="1141.8854,-1703.9001 984.7091,-1703.9001 984.7091,-1141.0999 1141.8854,-1141.0999 1141.8854,-1703.9001"/>
<text text-anchor="middle" x="1063.2972" y="-1687.1" font-family="Helvetica,sans-Serif" font-size="14.00" fill="#ffffff">Alibis</text>
<text text-anchor="middle" x="1063.2972" y="-1670.3" font-family="Helvetica,sans-Serif" font-size="14.00" fill="#ffffff">AnonyNews</text>
<text text-anchor="middle" x="1063.2972" y="-1653.5" font-family="Helvetica,sans-Serif" font-size="14.00" fill="#ffffff">AtlantisNews</text>
<text text-anchor="middle" x="1063.2972" y="-1636.7" font-family="Helvetica,sans-Serif" font-size="14.00" fill="#ffffff">Binary Boy</text>
<text text-anchor="middle" x="1063.2972" y="-1619.9" font-family="Helvetica,sans-Serif" font-size="14.00" fill="#ffffff">BinTube</text>
<text text-anchor="middle" x="1063.2972" y="-1603.1" font-family="Helvetica,sans-Serif" font-size="14.00" fill="#ffffff">BlockNews</text>
<text text-anchor="middle" x="1063.2972" y="-1586.3" font-family="Helvetica,sans-Serif" font-size="14.00" fill="#ffffff">BudgetNews</text>
<text text-anchor="middle" x="1063.2972" y="-1569.5" font-family="Helvetica,sans-Serif" font-size="14.00" fill="#ffffff">Fast-Usenet</text>
<text text-anchor="middle" x="1063.2972" y="-1552.7" font-family="Helvetica,sans-Serif" font-size="14.00" fill="#ffffff">Firstload</text>
<text text-anchor="middle" x="1063.2972" y="-1535.9" font-family="Helvetica,sans-Serif" font-size="14.00" fill="#ffffff">Forte Agent</text>
<text text-anchor="middle" x="1063.2972" y="-1519.1" font-family="Helvetica,sans-Serif" font-size="14.00" fill="#ffffff">Frugal Usenet</text>
<text text-anchor="middle" x="1063.2972" y="-1502.3" font-family="Helvetica,sans-Serif" font-size="14.00" fill="#ffffff">HitNews</text>
<text text-anchor="middle" x="1063.2972" y="-1485.5" font-family="Helvetica,sans-Serif" font-size="14.00" fill="#ffffff">iLoad</text>
<text text-anchor="middle" x="1063.2972" y="-1468.7" font-family="Helvetica,sans-Serif" font-size="14.00" fill="#ffffff">MaximumUsenet</text>
<text text-anchor="middle" x="1063.2972" y="-1451.9" font-family="Helvetica,sans-Serif" font-size="14.00" fill="#ffffff">NewsFusion</text>
<text text-anchor="middle" x="1063.2972" y="-1435.1" font-family="Helvetica,sans-Serif" font-size="14.00" fill="#ffffff">NewsGroup-Binaries</text>
<text text-anchor="middle" x="1063.2972" y="-1418.3" font-family="Helvetica,sans-Serif" font-size="14.00" fill="#ffffff">NewsGroupDownload</text>
<text text-anchor="middle" x="1063.2972" y="-1401.5" font-family="Helvetica,sans-Serif" font-size="14.00" fill="#ffffff">NewsLeecher</text>
<text text-anchor="middle" x="1063.2972" y="-1384.7" font-family="Helvetica,sans-Serif" font-size="14.00" fill="#ffffff">Ngroups</text>
<text text-anchor="middle" x="1063.2972" y="-1367.9" font-family="Helvetica,sans-Serif" font-size="14.00" fill="#ffffff">Prepaid-Usenet</text>
<text text-anchor="middle" x="1063.2972" y="-1351.1" font-family="Helvetica,sans-Serif" font-size="14.00" fill="#ffffff">Shemes</text>
<text text-anchor="middle" x="1063.2972" y="-1334.3" font-family="Helvetica,sans-Serif" font-size="14.00" fill="#ffffff">SimonNews</text>
<text text-anchor="middle" x="1063.2972" y="-1317.5" font-family="Helvetica,sans-Serif" font-size="14.00" fill="#ffffff">SnelNL</text>
<text text-anchor="middle" x="1063.2972" y="-1300.7" font-family="Helvetica,sans-Serif" font-size="14.00" fill="#ffffff">Uncensored Newsfeed</text>
<text text-anchor="middle" x="1063.2972" y="-1283.9" font-family="Helvetica,sans-Serif" font-size="14.00" fill="#ffffff">Usenet-News</text>
<text text-anchor="middle" x="1063.2972" y="-1267.1" font-family="Helvetica,sans-Serif" font-size="14.00" fill="#ffffff">Usenet.nl</text>
<text text-anchor="middle" x="1063.2972" y="-1250.3" font-family="Helvetica,sans-Serif" font-size="14.00" fill="#ffffff">Usenet.se</text>
<text text-anchor="middle" x="1063.2972" y="-1233.5" font-family="Helvetica,sans-Serif" font-size="14.00" fill="#ffffff">Usenet4u</text>
<text text-anchor="middle" x="1063.2972" y="-1216.7" font-family="Helvetica,sans-Serif" font-size="14.00" fill="#ffffff">UsenetAccess</text>
<text text-anchor="middle" x="1063.2972" y="-1199.9" font-family="Helvetica,sans-Serif" font-size="14.00" fill="#ffffff">UseNetNow</text>
<text text-anchor="middle" x="1063.2972" y="-1183.1" font-family="Helvetica,sans-Serif" font-size="14.00" fill="#ffffff">UsenetStorm</text>
<text text-anchor="middle" x="1063.2972" y="-1166.3" font-family="Helvetica,sans-Serif" font-size="14.00" fill="#ffffff">Usenext</text>
<text text-anchor="middle" x="1063.2972" y="-1149.5" font-family="Helvetica,sans-Serif" font-size="14.00" fill="#ffffff">XenNews</text>
</g>
<!-- NewsHosting&#45;&#45;Alibis\nAnonyNews\nAtlantisNews\nBinary Boy\nBinTube\nBlockNews\nBudgetNews\nFast&#45;Usenet\nFirstload\nForte Agent\nFrugal Usenet\nHitNews\niLoad\nMaximumUsenet\nNewsFusion\nNewsGroup&#45;Binaries\nNewsGroupDownload\nNewsLeecher\nNgroups\nPrepaid&#45;Usenet\nShemes\nSimonNews\nSnelNL\nUncensored Newsfeed\nUsenet&#45;News\nUsenet.nl\nUsenet.se\nUsenet4u\nUsenetAccess\nUseNetNow\nUsenetStorm\nUsenext\nXenNews -->
<g id="edge44" class="edge">
<title>NewsHosting--Alibis\nAnonyNews\nAtlantisNews\nBinary Boy\nBinTube\nBlockNews\nBudgetNews\nFast-Usenet\nFirstload\nForte Agent\nFrugal Usenet\nHitNews\niLoad\nMaximumUsenet\nNewsFusion\nNewsGroup-Binaries\nNewsGroupDownload\nNewsLeecher\nNgroups\nPrepaid-Usenet\nShemes\nSimonNews\nSnelNL\nUncensored Newsfeed\nUsenet-News\nUsenet.nl\nUsenet.se\nUsenet4u\nUsenetAccess\nUseNetNow\nUsenetStorm\nUsenext\nXenNews</title>
<path fill="none" stroke="#000000" d="M797.9271,-1396.3779C847.9866,-1401.3055 926.0825,-1408.993 984.615,-1414.7548"/>
</g>
<!-- TweakNews -->
<g id="node54" class="node">
<title>TweakNews</title>
<polygon fill="#ff0000" stroke="#ff0000" points="823.4693,-1286.5 785.9216,-1307.0013 710.8261,-1307.0013 673.2783,-1286.5 710.8261,-1265.9987 785.9216,-1265.9987 823.4693,-1286.5"/>
<text text-anchor="middle" x="748.3738" y="-1282.3" font-family="Helvetica,sans-Serif" font-size="14.00" fill="#ffb700">TweakNews</text>
</g>
<!-- Base IP / HW Media&#45;&#45;TweakNews -->
<g id="edge46" class="edge">
<title>Base IP / HW Media--TweakNews</title>
<path fill="none" stroke="#000000" d="M480.4157,-1242.0156C505.6103,-1247.111 534.746,-1252.8052 561.2725,-1257.5 603.836,-1265.0331 652.0405,-1272.479 688.86,-1277.9397"/>
</g>
<!-- PureUsenet -->
<g id="node55" class="node">
<title>PureUsenet</title>
<polygon fill="#ff0000" stroke="#ff0000" points="821.6921,-1228.5 785.033,-1249.0013 711.7147,-1249.0013 675.0556,-1228.5 711.7147,-1207.9987 785.033,-1207.9987 821.6921,-1228.5"/>
<text text-anchor="middle" x="748.3738" y="-1224.3" font-family="Helvetica,sans-Serif" font-size="14.00" fill="#ffffff">PureUsenet</text>
</g>
<!-- Base IP / HW Media&#45;&#45;PureUsenet -->
<g id="edge47" class="edge">
<title>Base IP / HW Media--PureUsenet</title>
<path fill="none" stroke="#000000" d="M487.0251,-1228.5C542.4004,-1228.5 618.8908,-1228.5 674.8115,-1228.5"/>
</g>
<!-- SunnyUsenet -->
<g id="node56" class="node">
<title>SunnyUsenet</title>
<polygon fill="#ff0000" stroke="#ff0000" points="830.2215,-1170.5 789.2977,-1191.0013 707.45,-1191.0013 666.5262,-1170.5 707.45,-1149.9987 789.2977,-1149.9987 830.2215,-1170.5"/>
<text text-anchor="middle" x="748.3738" y="-1166.3" font-family="Helvetica,sans-Serif" font-size="14.00" fill="#ffffff">SunnyUsenet</text>
</g>
<!-- Base IP / HW Media&#45;&#45;SunnyUsenet -->
<g id="edge48" class="edge">
<title>Base IP / HW Media--SunnyUsenet</title>
<path fill="none" stroke="#000000" d="M480.4157,-1214.9844C505.6103,-1209.889 534.746,-1204.1948 561.2725,-1199.5 602.2177,-1192.2533 648.3829,-1185.0873 684.6116,-1179.6917"/>
</g>
<!-- XLned -->
<g id="node57" class="node">
<title>XLned</title>
<polygon fill="#ff0000" stroke="#ff0000" points="794.5843,-1097.5 771.4791,-1118.0013 725.2686,-1118.0013 702.1634,-1097.5 725.2686,-1076.9987 771.4791,-1076.9987 794.5843,-1097.5"/>
<text text-anchor="middle" x="748.3738" y="-1093.3" font-family="Helvetica,sans-Serif" font-size="14.00" fill="#ffffff">XLned</text>
</g>
<!-- Base IP / HW Media&#45;&#45;XLned -->
<g id="edge49" class="edge">
<title>Base IP / HW Media--XLned</title>
<path fill="none" stroke="#000000" d="M433.9837,-1214.9923C460.6813,-1195.9372 512.4101,-1161.2857 561.2725,-1141.5 610.1411,-1121.7118 669.9583,-1109.5892 708.5943,-1103.2076"/>
</g>
<!-- ExtremeUsenet\nUsenetBucket -->
<g id="node58" class="node">
<title>ExtremeUsenet\nUsenetBucket</title>
<polygon fill="#ff0000" stroke="#ff0000" points="1154.9417,-1089.5 1109.1195,-1123.4325 1017.475,-1123.4325 971.6528,-1089.5 1017.475,-1055.5675 1109.1195,-1055.5675 1154.9417,-1089.5"/>
<text text-anchor="middle" x="1063.2972" y="-1093.7" font-family="Helvetica,sans-Serif" font-size="14.00" fill="#ffffff">ExtremeUsenet</text>
<text text-anchor="middle" x="1063.2972" y="-1076.9" font-family="Helvetica,sans-Serif" font-size="14.00" fill="#ffffff">UsenetBucket</text>
</g>
<!-- XLned&#45;&#45;ExtremeUsenet\nUsenetBucket -->
<g id="edge50" class="edge">
<title>XLned--ExtremeUsenet\nUsenetBucket</title>
<path fill="none" stroke="#000000" d="M793.4947,-1096.3538C840.5208,-1095.1592 915.4409,-1093.256 974.4124,-1091.7579"/>
</g>
<!-- Company -->
<g id="node59" class="node">
<title>Company</title>
<polygon fill="#000000" stroke="#000000" points="172.9082,-1749 97.1128,-1749 97.1128,-1722 172.9082,-1722 172.9082,-1749"/>
<text text-anchor="middle" x="135.0105" y="-1731.3" font-family="Helvetica,sans-Serif" font-size="14.00" fill="#ffffff">Company</text>
</g>
<!-- Backbone -->
<g id="node60" class="node">
<title>Backbone</title>
<polygon fill="#000000" stroke="#000000" points="454.8967,-1749 376.3967,-1749 376.3967,-1722 454.8967,-1722 454.8967,-1749"/>
<text text-anchor="middle" x="415.6467" y="-1731.3" font-family="Helvetica,sans-Serif" font-size="14.00" fill="#ffffff">Backbone</text>
</g>
<!-- Company&#45;&#45;Backbone -->
<g id="edge51" class="edge">
<title>Company--Backbone</title>
<path fill="none" stroke="#000000" d="M173.1504,-1735.5C226.3527,-1735.5 322.3578,-1735.5 376.2334,-1735.5"/>
</g>
<!-- Provider -->
<g id="node61" class="node">
<title>Provider</title>
<polygon fill="#000000" stroke="#000000" points="782.4861,-1749 714.2616,-1749 714.2616,-1722 782.4861,-1722 782.4861,-1749"/>
<text text-anchor="middle" x="748.3738" y="-1731.3" font-family="Helvetica,sans-Serif" font-size="14.00" fill="#ffffff">Provider</text>
</g>
<!-- Backbone&#45;&#45;Provider -->
<g id="edge52" class="edge">
<title>Backbone--Provider</title>
<path fill="none" stroke="#000000" d="M454.7932,-1735.5C520.4149,-1735.5 651.5401,-1735.5 713.8966,-1735.5"/>
</g>
<!-- Resellers -->
<g id="node62" class="node">
<title>Resellers</title>
<polygon fill="#000000" stroke="#000000" points="1100.6262,-1749 1025.9683,-1749 1025.9683,-1722 1100.6262,-1722 1100.6262,-1749"/>
<text text-anchor="middle" x="1063.2972" y="-1731.3" font-family="Helvetica,sans-Serif" font-size="14.00" fill="#ffffff">Resellers</text>
</g>
<!-- Provider&#45;&#45;Resellers -->
<g id="edge53" class="edge">
<title>Provider--Resellers</title>
<path fill="none" stroke="#000000" d="M782.6757,-1735.5C842.2974,-1735.5 964.5509,-1735.5 1026.1218,-1735.5"/>
</g>
<!-- NTD -->
<g id="node63" class="node">
<title>NTD</title>
<polygon fill="#000000" stroke="#000000" points="171.6128,-1787.5 153.3116,-1808.0013 116.7093,-1808.0013 98.4082,-1787.5 116.7093,-1766.9987 153.3116,-1766.9987 171.6128,-1787.5"/>
<text text-anchor="middle" x="135.0105" y="-1783.3" font-family="Helvetica,sans-Serif" font-size="14.00" fill="#ffffff">NTD</text>
</g>
<!-- DMCA -->
<g id="node64" class="node">
<title>DMCA</title>
<polygon fill="#000000" stroke="#000000" points="462.5719,-1787.5 439.1093,-1808.0013 392.1842,-1808.0013 368.7216,-1787.5 392.1842,-1766.9987 439.1093,-1766.9987 462.5719,-1787.5"/>
<text text-anchor="middle" x="415.6467" y="-1783.3" font-family="Helvetica,sans-Serif" font-size="14.00" fill="#ffffff">DMCA</text>
</g>
<!-- NTD&#45;&#45;DMCA -->
<!-- NTD&#45;&#45;DMCA -->
<!-- NTD+DCMA -->
<g id="node65" class="node">
<title>NTD+DCMA</title>
<polygon fill="#000000" stroke="#000000" points="825.1217,-1787.5 786.7478,-1808.0013 709.9999,-1808.0013 671.626,-1787.5 709.9999,-1766.9987 786.7478,-1766.9987 825.1217,-1787.5"/>
<text text-anchor="middle" x="748.3738" y="-1783.3" font-family="Helvetica,sans-Serif" font-size="14.00" fill="#ffb700">NTD+DCMA</text>
</g>
<!-- DMCA&#45;&#45;NTD+DCMA -->
<!-- Remastered by Catnicia -->
<g id="node66" class="node">
<title>Remastered by Catnicia</title>
<polygon fill="#000000" stroke="#000000" points="270.0315,-1845.5 202.521,-1866.0013 67.5,-1866.0013 -.0105,-1845.5 67.5,-1824.9987 202.521,-1824.9987 270.0315,-1845.5"/>
<text text-anchor="middle" x="135.0105" y="-1841.3" font-family="Helvetica,sans-Serif" font-size="14.00" fill="#ffffff">Remastered by Catnicia</text>
</g>
<!-- Vesion 04&#45;03&#45;2021 -->
<g id="node67" class="node">
<title>Vesion 04-03-2021</title>
<polygon fill="#000000" stroke="#000000" points="525.3984,-1845.5 470.5226,-1866.0013 360.7709,-1866.0013 305.8951,-1845.5 360.7709,-1824.9987 470.5226,-1824.9987 525.3984,-1845.5"/>
<text text-anchor="middle" x="415.6467" y="-1841.3" font-family="Helvetica,sans-Serif" font-size="14.00" fill="#ffffff">Vesion 04-03-2021</text>
</g>
<!-- Remastered by Catnicia&#45;&#45;Vesion 04&#45;03&#45;2021 -->
<!-- Forked from burwinch/usenet_tree -->
<g id="node68" class="node">
<title>Forked from burwinch/usenet_tree</title>
<polygon fill="#000000" stroke="#000000" points="935.5766,-1845.5 841.9752,-1866.0013 654.7725,-1866.0013 561.1711,-1845.5 654.7725,-1824.9987 841.9752,-1824.9987 935.5766,-1845.5"/>
<text text-anchor="middle" x="748.3738" y="-1841.3" font-family="Helvetica,sans-Serif" font-size="14.00" fill="#ffffff">Forked from burwinch/usenet_tree</text>
</g>
<!-- Vesion 04&#45;03&#45;2021&#45;&#45;Forked from burwinch/usenet_tree -->
</g>
</svg>
